<svg xmlns="http://www.w3.org/2000/svg" xmlns:xlink="http://www.w3.org/1999/xlink" width="500" zoomAndPan="magnify" viewBox="0 0 375 374.999991" height="500" preserveAspectRatio="xMidYMid meet" version="1.0"><defs><g/><clipPath id="4d228f3c9a"><path d="M 248 48 L 335.25 48 L 335.25 109 L 248 109 Z M 248 48 " clip-rule="nonzero"/></clipPath><clipPath id="82ce7cef10"><path d="M 37.5 104 L 135 104 L 135 284.59375 L 37.5 284.59375 Z M 37.5 104 " clip-rule="nonzero"/></clipPath><clipPath id="2d8a577854"><path d="M 210 10.84375 L 273 10.84375 L 273 44 L 210 44 Z M 210 10.84375 " clip-rule="nonzero"/></clipPath></defs><path fill="#63cbf7" d="M 156.300781 60.363281 C 156.675781 60.332031 157.054688 60.308594 157.4375 60.296875 C 158.6875 60.277344 159.304688 59.398438 160.050781 58.707031 C 160.304688 58.464844 158.625 59.25 156.300781 60.363281 Z M 147.640625 64.511719 C 148.214844 64.402344 148.796875 64.316406 149.386719 64.238281 C 150.503906 64.101562 151.085938 63.425781 151.570312 62.640625 C 150.136719 63.328125 148.761719 63.992188 147.640625 64.511719 Z M 147.640625 64.511719 C 148.214844 64.402344 148.796875 64.316406 149.386719 64.238281 C 150.503906 64.101562 151.085938 63.425781 151.570312 62.640625 C 150.136719 63.328125 148.761719 63.992188 147.640625 64.511719 Z M 156.300781 60.363281 C 156.675781 60.332031 157.054688 60.308594 157.4375 60.296875 C 158.6875 60.277344 159.304688 59.398438 160.050781 58.707031 C 160.304688 58.464844 158.625 59.25 156.300781 60.363281 Z M 156.300781 60.363281 C 156.675781 60.332031 157.054688 60.308594 157.4375 60.296875 C 158.6875 60.277344 159.304688 59.398438 160.050781 58.707031 C 160.304688 58.464844 158.625 59.25 156.300781 60.363281 Z M 147.640625 64.511719 C 148.214844 64.402344 148.796875 64.316406 149.386719 64.238281 C 150.503906 64.101562 151.085938 63.425781 151.570312 62.640625 C 150.136719 63.328125 148.761719 63.992188 147.640625 64.511719 Z M 147.640625 64.511719 C 148.214844 64.402344 148.796875 64.316406 149.386719 64.238281 C 150.503906 64.101562 151.085938 63.425781 151.570312 62.640625 C 150.136719 63.328125 148.761719 63.992188 147.640625 64.511719 Z M 156.300781 60.363281 C 156.675781 60.332031 157.054688 60.308594 157.4375 60.296875 C 158.6875 60.277344 159.304688 59.398438 160.050781 58.707031 C 160.304688 58.464844 158.625 59.25 156.300781 60.363281 Z M 209.625 169.210938 C 209.308594 169.007812 208.984375 168.824219 208.644531 168.636719 C 207.429688 168.222656 206.28125 167.628906 205.238281 166.816406 C 205.179688 166.773438 205.113281 166.726562 205.054688 166.675781 C 201.453125 163.75 200.046875 159.558594 194.960938 158.859375 C 192.195312 158.480469 189.34375 158.832031 186.613281 158.253906 C 186.128906 158.15625 185.632812 158.015625 185.234375 157.722656 C 184.648438 157.289062 184.34375 156.59375 183.988281 155.957031 C 183.078125 154.335938 181.691406 152.992188 180.054688 152.125 C 179.855469 152.019531 179.65625 151.929688 179.449219 151.835938 C 178.773438 151.539062 178.011719 151.324219 177.320312 151.566406 C 176.644531 151.808594 176.199219 152.441406 175.644531 152.890625 C 173.542969 154.59375 170.226562 153.578125 167.914062 154.972656 C 167.46875 155.242188 167.054688 155.601562 166.652344 155.972656 C 165.792969 156.742188 164.964844 157.535156 163.847656 157.558594 C 163.265625 157.570312 162.710938 157.355469 162.167969 157.121094 C 162.058594 157.074219 161.949219 157.027344 161.839844 156.980469 C 159.722656 156.082031 157.441406 155.542969 155.144531 155.40625 C 154.808594 155.382812 154.460938 155.371094 154.148438 155.503906 C 153.578125 155.738281 153.289062 156.359375 152.945312 156.875 C 151.546875 158.980469 148.914062 159.601562 146.523438 160.597656 C 146.519531 160.597656 146.519531 160.605469 146.511719 160.605469 C 145.667969 160.957031 144.863281 161.355469 144.144531 161.890625 C 143.601562 162.300781 143.09375 162.796875 142.445312 163.019531 C 141.753906 163.265625 141 163.171875 140.273438 163.074219 L 135.757812 162.46875 L 135.75 162.46875 L 131.402344 161.878906 C 131.929688 162.203125 132.457031 162.527344 132.976562 162.871094 C 137.257812 165.667969 141.125 169.101562 144.40625 173.03125 C 145.125 173.886719 145.828125 174.796875 146.152344 175.867188 C 146.402344 176.695312 146.410156 177.578125 146.5 178.4375 C 146.878906 181.984375 148.667969 185.203125 150.441406 188.296875 C 151.042969 189.34375 151.710938 190.449219 152.800781 190.960938 C 153.097656 191.105469 153.425781 191.195312 153.734375 191.300781 C 154.050781 191.402344 154.363281 191.523438 154.621094 191.71875 C 155.347656 192.253906 155.574219 193.214844 155.761719 194.097656 C 155.832031 194.445312 155.90625 194.792969 155.976562 195.144531 C 156.308594 196.730469 156.632812 198.316406 156.964844 199.902344 C 179.753906 190.585938 198.40625 180.765625 212.753906 172.179688 C 211.964844 170.933594 210.894531 169.996094 209.625 169.210938 Z M 156.300781 60.363281 C 156.675781 60.332031 157.054688 60.308594 157.4375 60.296875 C 158.6875 60.277344 159.304688 59.398438 160.050781 58.707031 C 160.304688 58.464844 158.625 59.25 156.300781 60.363281 Z M 147.640625 64.511719 C 148.214844 64.402344 148.796875 64.316406 149.386719 64.238281 C 150.503906 64.101562 151.085938 63.425781 151.570312 62.640625 C 150.136719 63.328125 148.761719 63.992188 147.640625 64.511719 Z M 147.640625 64.511719 C 148.214844 64.402344 148.796875 64.316406 149.386719 64.238281 C 150.503906 64.101562 151.085938 63.425781 151.570312 62.640625 C 150.136719 63.328125 148.761719 63.992188 147.640625 64.511719 Z M 156.300781 60.363281 C 156.675781 60.332031 157.054688 60.308594 157.4375 60.296875 C 158.6875 60.277344 159.304688 59.398438 160.050781 58.707031 C 160.304688 58.464844 158.625 59.25 156.300781 60.363281 Z M 209.625 169.210938 C 209.308594 169.007812 208.984375 168.824219 208.644531 168.636719 C 207.429688 168.222656 206.28125 167.628906 205.238281 166.816406 C 205.179688 166.773438 205.113281 166.726562 205.054688 166.675781 C 201.453125 163.75 200.046875 159.558594 194.960938 158.859375 C 192.195312 158.480469 189.34375 158.832031 186.613281 158.253906 C 186.128906 158.15625 185.632812 158.015625 185.234375 157.722656 C 184.648438 157.289062 184.34375 156.59375 183.988281 155.957031 C 183.078125 154.335938 181.691406 152.992188 180.054688 152.125 C 179.855469 152.019531 179.65625 151.929688 179.449219 151.835938 C 178.773438 151.539062 178.011719 151.324219 177.320312 151.566406 C 176.644531 151.808594 176.199219 152.441406 175.644531 152.890625 C 173.542969 154.59375 170.226562 153.578125 167.914062 154.972656 C 167.46875 155.242188 167.054688 155.601562 166.652344 155.972656 C 165.792969 156.742188 164.964844 157.535156 163.847656 157.558594 C 163.265625 157.570312 162.710938 157.355469 162.167969 157.121094 C 162.058594 157.074219 161.949219 157.027344 161.839844 156.980469 C 159.722656 156.082031 157.441406 155.542969 155.144531 155.40625 C 154.808594 155.382812 154.460938 155.371094 154.148438 155.503906 C 153.578125 155.738281 153.289062 156.359375 152.945312 156.875 C 151.546875 158.980469 148.914062 159.601562 146.523438 160.597656 C 146.519531 160.597656 146.519531 160.605469 146.511719 160.605469 C 145.667969 160.957031 144.863281 161.355469 144.144531 161.890625 C 143.601562 162.300781 143.09375 162.796875 142.445312 163.019531 C 141.753906 163.265625 141 163.171875 140.273438 163.074219 L 135.757812 162.46875 L 135.75 162.46875 L 131.402344 161.878906 C 131.929688 162.203125 132.457031 162.527344 132.976562 162.871094 C 137.257812 165.667969 141.125 169.101562 144.40625 173.03125 C 145.125 173.886719 145.828125 174.796875 146.152344 175.867188 C 146.402344 176.695312 146.410156 177.578125 146.5 178.4375 C 146.878906 181.984375 148.667969 185.203125 150.441406 188.296875 C 151.042969 189.34375 151.710938 190.449219 152.800781 190.960938 C 153.097656 191.105469 153.425781 191.195312 153.734375 191.300781 C 154.050781 191.402344 154.363281 191.523438 154.621094 191.71875 C 155.347656 192.253906 155.574219 193.214844 155.761719 194.097656 C 155.832031 194.445312 155.90625 194.792969 155.976562 195.144531 C 156.308594 196.730469 156.632812 198.316406 156.964844 199.902344 C 179.753906 190.585938 198.40625 180.765625 212.753906 172.179688 C 211.964844 170.933594 210.894531 169.996094 209.625 169.210938 Z M 209.625 169.210938 C 209.308594 169.007812 208.984375 168.824219 208.644531 168.636719 C 207.429688 168.222656 206.28125 167.628906 205.238281 166.816406 C 205.179688 166.773438 205.113281 166.726562 205.054688 166.675781 C 201.453125 163.75 200.046875 159.558594 194.960938 158.859375 C 192.195312 158.480469 189.34375 158.832031 186.613281 158.253906 C 186.128906 158.15625 185.632812 158.015625 185.234375 157.722656 C 184.648438 157.289062 184.34375 156.59375 183.988281 155.957031 C 183.078125 154.335938 181.691406 152.992188 180.054688 152.125 C 179.855469 152.019531 179.65625 151.929688 179.449219 151.835938 C 178.773438 151.539062 178.011719 151.324219 177.320312 151.566406 C 176.644531 151.808594 176.199219 152.441406 175.644531 152.890625 C 173.542969 154.59375 170.226562 153.578125 167.914062 154.972656 C 167.46875 155.242188 167.054688 155.601562 166.652344 155.972656 C 165.792969 156.742188 164.964844 157.535156 163.847656 157.558594 C 163.265625 157.570312 162.710938 157.355469 162.167969 157.121094 C 162.058594 157.074219 161.949219 157.027344 161.839844 156.980469 C 159.722656 156.082031 157.441406 155.542969 155.144531 155.40625 C 154.808594 155.382812 154.460938 155.371094 154.148438 155.503906 C 153.578125 155.738281 153.289062 156.359375 152.945312 156.875 C 151.546875 158.980469 148.914062 159.601562 146.523438 160.597656 C 146.519531 160.597656 146.519531 160.605469 146.511719 160.605469 C 145.667969 160.957031 144.863281 161.355469 144.144531 161.890625 C 143.601562 162.300781 143.09375 162.796875 142.445312 163.019531 C 141.753906 163.265625 141 163.171875 140.273438 163.074219 L 135.757812 162.46875 L 135.75 162.46875 L 131.402344 161.878906 C 131.929688 162.203125 132.457031 162.527344 132.976562 162.871094 C 137.257812 165.667969 141.125 169.101562 144.40625 173.03125 C 145.125 173.886719 145.828125 174.796875 146.152344 175.867188 C 146.402344 176.695312 146.410156 177.578125 146.5 178.4375 C 146.878906 181.984375 148.667969 185.203125 150.441406 188.296875 C 151.042969 189.34375 151.710938 190.449219 152.800781 190.960938 C 153.097656 191.105469 153.425781 191.195312 153.734375 191.300781 C 154.050781 191.402344 154.363281 191.523438 154.621094 191.71875 C 155.347656 192.253906 155.574219 193.214844 155.761719 194.097656 C 155.832031 194.445312 155.90625 194.792969 155.976562 195.144531 C 156.308594 196.730469 156.632812 198.316406 156.964844 199.902344 C 179.753906 190.585938 198.40625 180.765625 212.753906 172.179688 C 211.964844 170.933594 210.894531 169.996094 209.625 169.210938 Z M 156.300781 60.363281 C 156.675781 60.332031 157.054688 60.308594 157.4375 60.296875 C 158.6875 60.277344 159.304688 59.398438 160.050781 58.707031 C 160.304688 58.464844 158.625 59.25 156.300781 60.363281 Z M 147.640625 64.511719 C 148.214844 64.402344 148.796875 64.316406 149.386719 64.238281 C 150.503906 64.101562 151.085938 63.425781 151.570312 62.640625 C 150.136719 63.328125 148.761719 63.992188 147.640625 64.511719 Z M 147.640625 64.511719 C 148.214844 64.402344 148.796875 64.316406 149.386719 64.238281 C 150.503906 64.101562 151.085938 63.425781 151.570312 62.640625 C 150.136719 63.328125 148.761719 63.992188 147.640625 64.511719 Z M 156.300781 60.363281 C 156.675781 60.332031 157.054688 60.308594 157.4375 60.296875 C 158.6875 60.277344 159.304688 59.398438 160.050781 58.707031 C 160.304688 58.464844 158.625 59.25 156.300781 60.363281 Z M 209.625 169.210938 C 209.308594 169.007812 208.984375 168.824219 208.644531 168.636719 C 207.429688 168.222656 206.28125 167.628906 205.238281 166.816406 C 205.179688 166.773438 205.113281 166.726562 205.054688 166.675781 C 201.453125 163.75 200.046875 159.558594 194.960938 158.859375 C 192.195312 158.480469 189.34375 158.832031 186.613281 158.253906 C 186.128906 158.15625 185.632812 158.015625 185.234375 157.722656 C 184.648438 157.289062 184.34375 156.59375 183.988281 155.957031 C 183.078125 154.335938 181.691406 152.992188 180.054688 152.125 C 179.855469 152.019531 179.65625 151.929688 179.449219 151.835938 C 178.773438 151.539062 178.011719 151.324219 177.320312 151.566406 C 176.644531 151.808594 176.199219 152.441406 175.644531 152.890625 C 173.542969 154.59375 170.226562 153.578125 167.914062 154.972656 C 167.46875 155.242188 167.054688 155.601562 166.652344 155.972656 C 165.792969 156.742188 164.964844 157.535156 163.847656 157.558594 C 163.265625 157.570312 162.710938 157.355469 162.167969 157.121094 C 162.058594 157.074219 161.949219 157.027344 161.839844 156.980469 C 159.722656 156.082031 157.441406 155.542969 155.144531 155.40625 C 154.808594 155.382812 154.460938 155.371094 154.148438 155.503906 C 153.578125 155.738281 153.289062 156.359375 152.945312 156.875 C 151.546875 158.980469 148.914062 159.601562 146.523438 160.597656 C 146.519531 160.597656 146.519531 160.605469 146.511719 160.605469 C 145.667969 160.957031 144.863281 161.355469 144.144531 161.890625 C 143.601562 162.300781 143.09375 162.796875 142.445312 163.019531 C 141.753906 163.265625 141 163.171875 140.273438 163.074219 L 135.757812 162.46875 L 135.75 162.46875 L 131.402344 161.878906 C 131.929688 162.203125 132.457031 162.527344 132.976562 162.871094 C 137.257812 165.667969 141.125 169.101562 144.40625 173.03125 C 145.125 173.886719 145.828125 174.796875 146.152344 175.867188 C 146.402344 176.695312 146.410156 177.578125 146.5 178.4375 C 146.878906 181.984375 148.667969 185.203125 150.441406 188.296875 C 151.042969 189.34375 151.710938 190.449219 152.800781 190.960938 C 153.097656 191.105469 153.425781 191.195312 153.734375 191.300781 C 154.050781 191.402344 154.363281 191.523438 154.621094 191.71875 C 155.347656 192.253906 155.574219 193.214844 155.761719 194.097656 C 155.832031 194.445312 155.90625 194.792969 155.976562 195.144531 C 156.308594 196.730469 156.632812 198.316406 156.964844 199.902344 C 179.753906 190.585938 198.40625 180.765625 212.753906 172.179688 C 211.964844 170.933594 210.894531 169.996094 209.625 169.210938 Z M 209.625 169.210938 C 209.308594 169.007812 208.984375 168.824219 208.644531 168.636719 C 207.429688 168.222656 206.28125 167.628906 205.238281 166.816406 C 205.179688 166.773438 205.113281 166.726562 205.054688 166.675781 C 201.453125 163.75 200.046875 159.558594 194.960938 158.859375 C 192.195312 158.480469 189.34375 158.832031 186.613281 158.253906 C 186.128906 158.15625 185.632812 158.015625 185.234375 157.722656 C 184.648438 157.289062 184.34375 156.59375 183.988281 155.957031 C 183.078125 154.335938 181.691406 152.992188 180.054688 152.125 C 179.855469 152.019531 179.65625 151.929688 179.449219 151.835938 C 178.773438 151.539062 178.011719 151.324219 177.320312 151.566406 C 176.644531 151.808594 176.199219 152.441406 175.644531 152.890625 C 173.542969 154.59375 170.226562 153.578125 167.914062 154.972656 C 167.46875 155.242188 167.054688 155.601562 166.652344 155.972656 C 165.792969 156.742188 164.964844 157.535156 163.847656 157.558594 C 163.265625 157.570312 162.710938 157.355469 162.167969 157.121094 C 162.058594 157.074219 161.949219 157.027344 161.839844 156.980469 C 159.722656 156.082031 157.441406 155.542969 155.144531 155.40625 C 154.808594 155.382812 154.460938 155.371094 154.148438 155.503906 C 153.578125 155.738281 153.289062 156.359375 152.945312 156.875 C 151.546875 158.980469 148.914062 159.601562 146.523438 160.597656 C 146.519531 160.597656 146.519531 160.605469 146.511719 160.605469 C 145.667969 160.957031 144.863281 161.355469 144.144531 161.890625 C 143.601562 162.300781 143.09375 162.796875 142.445312 163.019531 C 141.753906 163.265625 141 163.171875 140.273438 163.074219 L 135.757812 162.46875 L 135.75 162.46875 L 131.402344 161.878906 C 131.929688 162.203125 132.457031 162.527344 132.976562 162.871094 C 137.257812 165.667969 141.125 169.101562 144.40625 173.03125 C 145.125 173.886719 145.828125 174.796875 146.152344 175.867188 C 146.402344 176.695312 146.410156 177.578125 146.5 178.4375 C 146.878906 181.984375 148.667969 185.203125 150.441406 188.296875 C 151.042969 189.34375 151.710938 190.449219 152.800781 190.960938 C 153.097656 191.105469 153.425781 191.195312 153.734375 191.300781 C 154.050781 191.402344 154.363281 191.523438 154.621094 191.71875 C 155.347656 192.253906 155.574219 193.214844 155.761719 194.097656 C 155.832031 194.445312 155.90625 194.792969 155.976562 195.144531 C 156.308594 196.730469 156.632812 198.316406 156.964844 199.902344 C 179.753906 190.585938 198.40625 180.765625 212.753906 172.179688 C 211.964844 170.933594 210.894531 169.996094 209.625 169.210938 Z M 160.050781 58.707031 C 160.304688 58.464844 158.625 59.25 156.300781 60.363281 C 156.675781 60.332031 157.054688 60.308594 157.4375 60.296875 C 158.6875 60.277344 159.304688 59.398438 160.050781 58.707031 Z M 151.570312 62.640625 C 150.136719 63.328125 148.761719 63.992188 147.640625 64.511719 C 148.214844 64.402344 148.796875 64.316406 149.386719 64.238281 C 150.503906 64.101562 151.085938 63.425781 151.570312 62.640625 Z M 288.253906 111.988281 C 287.949219 111.105469 287.617188 110.210938 287.28125 109.355469 C 286.972656 108.554688 286.65625 107.757812 286.328125 106.96875 C 285.734375 105.519531 285.109375 104.078125 284.457031 102.65625 C 283.933594 101.507812 283.390625 100.375 282.824219 99.246094 C 282.746094 99.085938 282.671875 98.933594 282.589844 98.78125 C 282.148438 97.90625 281.695312 97.039062 281.230469 96.183594 C 281.027344 95.789062 280.796875 95.363281 280.527344 94.875 C 279.410156 92.851562 278.230469 90.867188 276.992188 88.921875 C 267.539062 74.015625 254.757812 61.371094 239.726562 52.285156 C 206.5625 31.667969 165.28125 30.039062 129.3125 47.925781 C 99.703125 62.652344 78.457031 88.398438 69.894531 118.953125 C 69.101562 121.792969 68.410156 124.671875 67.839844 127.59375 C 67.632812 128.621094 67.445312 129.652344 67.273438 130.699219 C 66.820312 133.398438 66.460938 136.128906 66.207031 138.875 L 66.207031 138.933594 C 66.03125 141.289062 65.917969 143.648438 65.851562 145.960938 C 65.808594 147.644531 65.796875 149.316406 65.8125 150.980469 C 65.949219 164.320312 67.96875 176.984375 71.84375 188.695312 C 73.027344 192.28125 74.390625 195.792969 75.925781 199.203125 C 76.742188 201.023438 77.609375 202.8125 78.519531 204.570312 C 78.871094 205.257812 79.234375 205.945312 79.605469 206.621094 C 80.347656 207.972656 81.109375 209.308594 81.902344 210.617188 C 81.925781 210.660156 81.953125 210.703125 81.980469 210.746094 C 82.519531 211.628906 83.074219 212.523438 83.640625 213.402344 C 87.917969 220 92.882812 226.066406 98.472656 231.527344 C 100 233.039062 101.582031 234.488281 103.207031 235.898438 C 103.425781 236.085938 103.644531 236.277344 103.859375 236.457031 C 104.5625 237.0625 105.269531 237.648438 105.988281 238.234375 C 106.8125 238.910156 107.648438 239.5625 108.5 240.207031 C 108.507812 240.214844 108.515625 240.226562 108.527344 240.226562 C 108.910156 240.527344 109.304688 240.820312 109.695312 241.109375 C 109.695312 241.109375 109.695312 241.109375 109.707031 241.121094 C 114.769531 244.882812 120.191406 248.234375 125.9375 251.148438 L 125.941406 251.148438 C 127.265625 251.820312 128.609375 252.472656 129.972656 253.09375 C 132.808594 254.402344 135.714844 255.609375 138.691406 256.703125 C 152.316406 261.730469 166.941406 264.273438 181.488281 264.273438 C 190.4375 264.273438 199.359375 263.308594 207.996094 261.367188 C 229.894531 256.4375 249.25 245.507812 263.96875 229.757812 C 280.445312 212.132812 290.644531 189.375 294.285156 162.121094 L 294.296875 162.050781 C 296.070312 145.304688 293.976562 127.988281 288.253906 111.988281 Z M 273.03125 203.625 C 271.621094 206.882812 270.609375 210.316406 268.328125 213.152344 C 266.597656 215.296875 264.925781 217.5 263.152344 219.621094 C 261.460938 221.660156 259.730469 223.675781 257.894531 225.582031 C 255.921875 227.636719 253.886719 229.636719 251.75 231.511719 C 249.289062 233.675781 246.753906 235.757812 244.140625 237.726562 C 241.996094 239.339844 239.714844 240.765625 237.4375 242.207031 C 235.304688 243.550781 233.148438 244.871094 230.921875 246.058594 C 228.484375 247.34375 225.988281 248.515625 223.472656 249.644531 C 220.996094 250.757812 218.488281 251.796875 215.945312 252.757812 C 214.398438 253.339844 212.777344 253.722656 211.1875 254.179688 C 208.984375 254.800781 206.773438 255.433594 204.558594 256.03125 C 203.0625 256.429688 201.5625 256.871094 200.039062 257.125 C 197.382812 257.566406 194.707031 257.945312 192.023438 258.222656 C 189.664062 258.464844 187.285156 258.523438 184.917969 258.703125 C 184.621094 258.726562 184.324219 258.78125 184.03125 258.851562 C 180.707031 258.921875 177.390625 258.851562 174.097656 258.644531 C 174.097656 258.484375 174.09375 258.386719 174.140625 258.332031 C 176.449219 255.667969 177.542969 252.277344 179.464844 249.398438 C 180.242188 248.226562 181.535156 247.246094 182.796875 246.566406 C 185.570312 245.0625 188.496094 243.820312 191.332031 242.433594 C 194.90625 240.691406 198.289062 238.746094 200.304688 235.042969 C 201.132812 233.507812 201.320312 231.925781 201.285156 230.300781 C 201.257812 229.148438 201.433594 228.214844 202.445312 227.566406 C 202.511719 227.527344 202.578125 227.472656 202.625 227.414062 C 203.878906 225.855469 205.226562 225.226562 207.300781 226.15625 C 208.101562 226.515625 209.40625 225.929688 210.425781 225.605469 C 212.101562 225.054688 213.761719 224.433594 215.367188 223.703125 C 216.832031 223.019531 218.230469 222.179688 219.628906 221.359375 C 219.933594 221.179688 220.222656 220.796875 220.335938 220.453125 C 221.117188 218.015625 222.851562 216.457031 224.980469 215.242188 C 227.335938 213.890625 228.375 211.71875 228.496094 209.132812 C 228.5625 207.636719 229.046875 206.769531 230.488281 206.261719 C 234.683594 204.777344 237.652344 201.804688 239.9375 198.085938 C 241.242188 195.953125 240.675781 192.445312 238.820312 190.792969 C 237.960938 190.035156 237.15625 189.207031 236.234375 188.535156 C 235.875 188.28125 235.273438 188.320312 234.78125 188.3125 C 232.109375 188.292969 229.4375 188.324219 226.765625 188.292969 C 225.746094 188.28125 225.242188 187.5625 225.035156 186.664062 C 224.882812 186.011719 221.097656 185.234375 220.859375 184.640625 C 211.171875 195.144531 191.445312 211.847656 168.464844 231.582031 C 168.191406 232.652344 166.917969 237.714844 166.652344 238.773438 C 165.535156 243.203125 163.925781 247.535156 163.847656 252.167969 C 163.820312 253.695312 164.34375 255.226562 164.617188 256.753906 C 164.671875 257.042969 164.734375 257.324219 164.816406 257.683594 C 155.699219 256.375 146.800781 254.011719 138.363281 250.675781 C 137.0625 250.164062 135.769531 249.625 134.488281 249.0625 C 129.742188 246.984375 125.160156 244.597656 120.777344 241.90625 C 119.5625 241.160156 118.359375 240.390625 117.179688 239.601562 C 115.085938 238.195312 113.039062 236.722656 111.050781 235.1875 C 109.457031 233.949219 107.894531 232.664062 106.371094 231.339844 C 101.78125 227.335938 97.546875 222.945312 93.757812 218.179688 C 92.292969 216.355469 90.902344 214.476562 89.578125 212.539062 C 89.105469 211.851562 88.640625 211.15625 88.183594 210.453125 C 87.644531 209.625 87.117188 208.78125 86.613281 207.941406 C 86.230469 207.308594 85.855469 206.675781 85.484375 206.03125 C 84.566406 204.433594 83.6875 202.8125 82.851562 201.15625 C 80.5625 196.621094 78.59375 191.878906 76.976562 186.988281 C 73.871094 177.582031 72.007812 167.527344 71.429688 156.957031 C 71.316406 154.996094 71.25 153.019531 71.230469 151.023438 C 71.207031 149.394531 71.21875 147.753906 71.261719 146.101562 C 71.320312 143.886719 71.4375 141.617188 71.59375 139.347656 C 73.671875 117.214844 82.457031 96.804688 96.425781 80.324219 C 96.355469 80.644531 96.273438 80.964844 96.167969 81.28125 C 96.277344 81.132812 96.386719 80.988281 96.492188 80.839844 C 96.578125 80.714844 96.679688 80.59375 96.777344 80.476562 C 96.871094 80.53125 96.96875 80.582031 97.0625 80.636719 C 96.941406 81.078125 96.84375 81.53125 96.691406 81.960938 C 95.417969 85.570312 93.921875 89.117188 92.902344 92.796875 C 91.625 97.417969 90.589844 102.125 89.714844 106.84375 C 89.023438 110.585938 89.359375 114.40625 89.789062 118.175781 C 90.085938 120.734375 90.542969 123.277344 91 125.808594 C 91.15625 126.710938 91.347656 127.679688 92.417969 128.070312 C 92.597656 128.144531 92.679688 128.4375 92.832031 128.605469 C 93.257812 129.074219 93.613281 129.738281 94.140625 129.941406 C 95.84375 130.601562 96.644531 131.785156 96.703125 133.558594 C 96.761719 135.207031 97.378906 136.570312 98.722656 137.609375 C 99.320312 138.074219 99.742188 138.777344 100.3125 139.28125 C 101.226562 140.105469 102.101562 141.042969 103.164062 141.597656 C 105.378906 142.742188 107.09375 144.484375 108.933594 146.074219 C 109.835938 146.859375 110.6875 147.726562 111.65625 148.417969 C 112.671875 149.136719 113.800781 149.691406 114.871094 150.320312 C 115.878906 150.910156 116.878906 151.503906 118.128906 152.234375 C 117.929688 152.234375 117.746094 152.226562 117.5625 152.226562 C 117.71875 152.332031 117.882812 152.421875 118.027344 152.53125 C 120.066406 154.042969 121.34375 156.25 122.578125 158.457031 C 123.886719 158.484375 125.207031 158.824219 126.542969 159.285156 C 129.621094 160.347656 132.746094 162.054688 135.761719 162.003906 C 134.890625 161.3125 134.097656 159.941406 133.460938 158.386719 C 132.546875 156.164062 131.957031 153.578125 131.964844 152.144531 C 131.28125 152.183594 130.597656 152.210938 129.910156 152.238281 C 128.714844 152.289062 127.886719 151.34375 128.347656 150.214844 C 129.363281 147.710938 130.140625 145.039062 132.65625 143.445312 C 133.835938 142.699219 133.824219 141.445312 132.816406 140.515625 C 132.507812 140.226562 132.246094 139.878906 132.011719 139.527344 C 131.300781 138.476562 130.667969 138.257812 129.617188 139.011719 C 128.84375 139.566406 128.285156 140.402344 127.554688 141.027344 C 127.125 141.402344 126.589844 141.703125 126.046875 141.898438 C 124.054688 142.625 121.992188 142.449219 119.929688 142.335938 C 118.226562 142.238281 116.945312 141.410156 116.085938 140.128906 C 115.363281 139.03125 114.941406 137.707031 114.539062 136.433594 C 114.144531 135.171875 113.910156 133.859375 113.636719 132.5625 C 113.148438 130.214844 114.195312 128.398438 115.753906 126.796875 C 116.445312 126.089844 117.140625 125.351562 117.957031 124.808594 C 118.433594 124.492188 119.140625 124.523438 119.734375 124.402344 C 120.683594 124.207031 121.734375 124.207031 122.574219 123.78125 C 124.832031 122.644531 127.15625 122.84375 129.546875 123.003906 C 130.652344 123.074219 131.871094 122.839844 132.894531 122.414062 C 134.214844 121.871094 135.398438 120.988281 136.691406 120.21875 C 137.003906 121.203125 137.410156 122.238281 137.664062 123.320312 C 138.101562 125.222656 138.890625 126.988281 140.515625 128.050781 C 142.234375 129.160156 142.621094 130.867188 143.121094 132.5625 C 143.644531 134.3125 144.632812 135.695312 146.160156 136.660156 C 146.742188 137.039062 148.546875 136.410156 149.109375 135.695312 C 149.742188 134.902344 149.679688 134.121094 149.039062 133.347656 C 147.5625 131.585938 147.050781 129.417969 146.46875 127.269531 C 146.320312 126.714844 145.988281 126.117188 145.566406 125.753906 C 144.832031 125.144531 144.707031 124.476562 145.039062 123.683594 C 145.332031 123.003906 145.757812 122.375 146.050781 121.699219 C 146.339844 121.03125 146.511719 120.320312 146.773438 119.644531 C 146.996094 119.066406 147.242188 118.496094 147.53125 117.957031 C 148.417969 116.289062 149.335938 114.632812 150.226562 112.96875 C 150.324219 112.792969 150.40625 112.570312 150.367188 112.402344 C 150.054688 111 150.878906 110.632812 152.027344 110.292969 C 154.746094 109.488281 156.402344 107.414062 157.71875 105.050781 C 158.144531 104.28125 158.546875 104.085938 159.449219 104.132812 C 160.664062 104.199219 161.976562 104.097656 163.097656 103.675781 C 164.816406 103.027344 165.066406 101.730469 164.054688 100.195312 C 163.929688 100.007812 163.84375 99.796875 163.660156 99.441406 C 165.300781 99.34375 166.800781 99.191406 168.296875 99.195312 C 170.171875 99.207031 172.039062 99.355469 173.914062 99.441406 C 174.027344 99.445312 174.164062 99.445312 174.257812 99.507812 C 176.015625 100.644531 177.804688 100.445312 179.441406 99.375 C 181.015625 98.363281 182.082031 96.871094 182.660156 95.050781 C 183.273438 93.097656 183.203125 92.578125 181.75 91.515625 C 181.375 91.246094 180.753906 91.125 180.28125 91.191406 C 178.160156 91.46875 176.046875 92.109375 173.941406 92.101562 C 171.675781 92.09375 169.3125 91.796875 167.511719 90.101562 C 166.640625 89.289062 166.777344 88.34375 167.828125 87.773438 C 170.261719 86.4375 172.902344 85.738281 175.648438 85.636719 C 180.257812 85.460938 183.625 82.746094 184.613281 78.242188 C 185.054688 76.222656 184.089844 74.234375 182.46875 72.964844 C 180.445312 71.367188 177.972656 70.949219 175.683594 70.09375 C 175.082031 69.867188 174.222656 70.148438 173.558594 70.398438 C 172.890625 70.648438 172.496094 70.769531 172.019531 70.039062 C 170.558594 67.835938 168.574219 66.179688 166.304688 64.859375 C 164.507812 63.808594 162.144531 64.019531 160.796875 65.792969 C 159.566406 67.398438 158.714844 69.335938 157.921875 71.21875 C 157.664062 71.824219 158.214844 72.730469 158.242188 73.503906 C 158.269531 74.15625 158.183594 74.867188 157.9375 75.472656 C 157.496094 76.546875 156.902344 77.570312 156.371094 78.609375 C 155.753906 79.820312 154.738281 80.222656 153.5625 79.53125 C 152.777344 79.070312 152.140625 78.347656 151.460938 77.722656 C 150.761719 77.070312 150.175781 76.222656 149.371094 75.753906 C 148.476562 75.230469 147.441406 75.351562 146.441406 75.832031 C 146.121094 75.988281 145.488281 75.808594 145.152344 75.574219 C 143.480469 74.410156 142.261719 72.84375 141.699219 70.878906 C 141.582031 70.480469 141.929688 69.859375 142.21875 69.445312 C 143.121094 68.109375 144.085938 66.8125 145.074219 65.542969 C 145.074219 65.535156 145.085938 65.53125 145.09375 65.519531 C 145.347656 65.203125 145.765625 64.925781 146.160156 64.828125 C 146.160156 64.828125 146.164062 64.824219 146.167969 64.820312 C 147.421875 64.101562 149.613281 62.972656 152.089844 61.769531 C 152.113281 61.730469 152.136719 61.691406 152.15625 61.65625 C 152.363281 61.3125 152.707031 60.882812 153.042969 60.820312 C 153.5625 60.730469 154.078125 60.640625 154.59375 60.566406 C 159.765625 58.132812 165.199219 55.835938 165.628906 56.359375 C 166.515625 57.429688 167.621094 57.605469 168.945312 57.59375 C 169.707031 57.589844 170.515625 58.035156 171.234375 58.417969 C 172.019531 58.828125 172.667969 59.480469 173.691406 59.039062 C 174.792969 58.566406 175.203125 57.789062 174.597656 56.75 C 173.445312 54.765625 172.3125 52.753906 170.925781 50.957031 C 170.265625 50.101562 169.089844 49.488281 168.027344 49.125 C 166.320312 48.53125 164.519531 48.109375 162.722656 47.839844 C 159.980469 47.414062 157.371094 48.085938 154.960938 49.386719 C 152.351562 50.78125 152.011719 50.867188 147.863281 49.730469 C 144.851562 48.894531 141.996094 49.386719 139.273438 50.789062 C 136.820312 52.050781 134.5 53.625 131.636719 53.867188 C 131.15625 53.90625 130.679688 53.976562 130.199219 54.03125 C 130.179688 53.949219 130.144531 53.859375 130.125 53.78125 C 130.394531 53.601562 130.652344 53.386719 130.949219 53.246094 C 137.105469 50.347656 143.316406 47.527344 149.921875 45.8125 C 154.632812 44.589844 159.441406 43.714844 164.207031 42.6875 C 165.09375 42.496094 165.578125 42.738281 165.683594 43.785156 C 165.726562 44.1875 166.367188 44.851562 166.75 44.863281 C 168.523438 44.890625 170.308594 44.75 172.089844 44.617188 C 173.109375 44.546875 174.054688 44.34375 175.152344 44.617188 C 176.625 44.988281 178.25 44.757812 179.800781 44.753906 C 180.1875 44.753906 180.574219 44.628906 180.96875 44.585938 C 183.085938 44.367188 184.253906 45.351562 184.582031 47.46875 C 184.640625 47.839844 185.140625 48.367188 185.5 48.417969 C 186.488281 48.546875 187.511719 48.503906 188.511719 48.453125 C 189.222656 48.421875 189.84375 48.328125 189.953125 49.332031 C 189.980469 49.59375 190.394531 49.984375 190.660156 50.019531 C 191.777344 50.144531 192.898438 50.164062 194.015625 50.199219 C 194.429688 50.203125 194.847656 50.128906 195.640625 50.058594 C 194.238281 51.675781 195.964844 52.722656 195.832031 54.042969 C 196.828125 54.351562 197.8125 54.832031 198.832031 54.914062 C 199.769531 54.996094 200.730469 54.613281 201.699219 54.492188 C 202.980469 54.335938 203.832031 54.878906 204.078125 56.148438 C 204.28125 57.195312 204.890625 57.617188 205.851562 57.648438 C 208.507812 57.742188 211.054688 57.25 213.652344 56.613281 C 217 55.796875 220.011719 53.730469 223.628906 53.980469 C 226.140625 54.148438 228.730469 53.90625 231.152344 54.433594 C 232.9375 54.824219 234.523438 56.144531 236.171875 57.085938 C 237.574219 57.890625 238.914062 58.808594 240.351562 59.53125 C 241.167969 59.9375 241.296875 60.351562 240.90625 61.082031 C 240.613281 61.632812 240.339844 62.195312 240.050781 62.75 C 239.117188 64.578125 239.691406 66.484375 241.386719 67.628906 C 242.457031 68.347656 243.394531 69.257812 244.40625 70.066406 C 244.640625 70.253906 244.960938 70.335938 245.21875 70.523438 C 245.835938 70.96875 246.441406 71.445312 247.035156 71.929688 C 247.210938 72.070312 247.3125 72.304688 247.480469 72.464844 C 249.066406 73.972656 249.003906 73.945312 248.199219 76.023438 C 247.78125 77.101562 247.433594 78.265625 247.382812 79.410156 C 247.308594 81.105469 246.527344 82.289062 245.300781 83.296875 C 243.519531 84.757812 241.648438 86.121094 239.976562 87.691406 C 238.222656 89.347656 238.433594 90.738281 240.253906 92.246094 C 242.050781 93.734375 243.753906 95.332031 245.5 96.878906 C 246.269531 97.566406 247.074219 98.214844 247.839844 98.898438 C 248.015625 99.050781 248.183594 99.203125 248.347656 99.359375 C 248.628906 99.617188 248.902344 99.882812 249.164062 100.160156 C 250.296875 101.355469 250.96875 102.746094 250.371094 104.527344 C 249.859375 106.042969 249.382812 107.550781 248.691406 108.984375 C 248.566406 109.078125 248.445312 109.175781 248.324219 109.28125 C 247.6875 109.820312 247.050781 110.363281 246.410156 110.902344 C 245.855469 111.378906 245.289062 111.851562 244.625 112.144531 C 243.257812 112.746094 241.691406 112.496094 240.210938 112.28125 C 238.496094 112.039062 236.765625 111.863281 235.027344 111.757812 C 234.710938 111.738281 234.375 111.726562 234.097656 111.882812 C 233.5 112.21875 233.519531 113.0625 233.308594 113.714844 C 232.730469 115.515625 230.367188 115.835938 228.484375 115.832031 C 227.707031 116.742188 228.550781 118.097656 229.371094 118.976562 C 230.296875 119.96875 231.238281 120.96875 232.410156 121.65625 C 233.671875 122.398438 235.132812 122.71875 236.585938 122.96875 C 236.828125 123.015625 237.070312 123.058594 237.308594 123.097656 C 239.195312 123.40625 241.082031 123.722656 242.96875 124.035156 C 242.96875 124.140625 242.96875 124.246094 242.957031 124.355469 C 242.921875 124.953125 242.742188 125.546875 242.429688 126.066406 L 247.742188 130.53125 C 248.097656 130.828125 248.460938 131.128906 248.722656 131.515625 C 249.4375 132.574219 249.222656 133.859375 249.011719 135.167969 C 248.960938 135.46875 248.90625 135.769531 248.871094 136.0625 C 248.816406 136.507812 248.777344 136.941406 248.796875 137.363281 C 248.847656 138.382812 249.234375 139.335938 249.652344 140.28125 C 249.8125 140.644531 249.980469 141.011719 250.132812 141.371094 C 251.085938 143.617188 251.019531 146.085938 251.863281 148.292969 C 252.648438 150.332031 254.726562 152.597656 256.148438 154.234375 C 257.386719 155.65625 258.75 156.949219 260.273438 158.136719 C 261.632812 159.1875 263.496094 158.886719 264.5625 160.261719 C 266.585938 160.09375 268.164062 161.292969 269.890625 162.015625 C 270.757812 162.375 271.464844 162.703125 270.792969 163.871094 C 270.332031 164.671875 269.96875 165.570312 269.769531 166.480469 C 269.417969 168.113281 269.542969 169.695312 270.453125 171.226562 C 271.589844 173.140625 271.644531 175.332031 271.6875 177.488281 C 271.71875 179.597656 271.6875 181.71875 271.699219 183.828125 C 271.699219 184.214844 271.652344 184.707031 271.855469 184.96875 C 272.878906 186.269531 272.472656 187.730469 272.410156 189.152344 C 272.253906 192.75 272.242188 196.324219 273.214844 199.847656 C 273.554688 201.082031 273.59375 202.335938 273.03125 203.625 Z M 209.625 169.210938 C 209.308594 169.007812 208.984375 168.824219 208.644531 168.636719 C 207.429688 168.222656 206.28125 167.628906 205.238281 166.816406 C 205.179688 166.773438 205.113281 166.726562 205.054688 166.675781 C 201.453125 163.75 200.046875 159.558594 194.960938 158.859375 C 192.195312 158.480469 189.34375 158.832031 186.613281 158.253906 C 186.128906 158.15625 185.632812 158.015625 185.234375 157.722656 C 184.648438 157.289062 184.34375 156.59375 183.988281 155.957031 C 183.078125 154.335938 181.691406 152.992188 180.054688 152.125 C 179.855469 152.019531 179.65625 151.929688 179.449219 151.835938 C 178.773438 151.539062 178.011719 151.324219 177.320312 151.566406 C 176.644531 151.808594 176.199219 152.441406 175.644531 152.890625 C 173.542969 154.59375 170.226562 153.578125 167.914062 154.972656 C 167.46875 155.242188 167.054688 155.601562 166.652344 155.972656 C 165.792969 156.742188 164.964844 157.535156 163.847656 157.558594 C 163.265625 157.570312 162.710938 157.355469 162.167969 157.121094 C 162.058594 157.074219 161.949219 157.027344 161.839844 156.980469 C 159.722656 156.082031 157.441406 155.542969 155.144531 155.40625 C 154.808594 155.382812 154.460938 155.371094 154.148438 155.503906 C 153.578125 155.738281 153.289062 156.359375 152.945312 156.875 C 151.546875 158.980469 148.914062 159.601562 146.523438 160.597656 C 146.519531 160.597656 146.519531 160.605469 146.511719 160.605469 C 145.667969 160.957031 144.863281 161.355469 144.144531 161.890625 C 143.601562 162.300781 143.09375 162.796875 142.445312 163.019531 C 141.753906 163.265625 141 163.171875 140.273438 163.074219 L 135.757812 162.46875 L 135.75 162.46875 L 131.402344 161.878906 C 131.929688 162.203125 132.457031 162.527344 132.976562 162.871094 C 137.257812 165.667969 141.125 169.101562 144.40625 173.03125 C 145.125 173.886719 145.828125 174.796875 146.152344 175.867188 C 146.402344 176.695312 146.410156 177.578125 146.5 178.4375 C 146.878906 181.984375 148.667969 185.203125 150.441406 188.296875 C 151.042969 189.34375 151.710938 190.449219 152.800781 190.960938 C 153.097656 191.105469 153.425781 191.195312 153.734375 191.300781 C 154.050781 191.402344 154.363281 191.523438 154.621094 191.71875 C 155.347656 192.253906 155.574219 193.214844 155.761719 194.097656 C 155.832031 194.445312 155.90625 194.792969 155.976562 195.144531 C 156.308594 196.730469 156.632812 198.316406 156.964844 199.902344 C 179.753906 190.585938 198.40625 180.765625 212.753906 172.179688 C 211.964844 170.933594 210.894531 169.996094 209.625 169.210938 Z M 156.300781 60.363281 C 156.675781 60.332031 157.054688 60.308594 157.4375 60.296875 C 158.6875 60.277344 159.304688 59.398438 160.050781 58.707031 C 160.304688 58.464844 158.625 59.25 156.300781 60.363281 Z M 149.386719 64.238281 C 150.503906 64.101562 151.085938 63.425781 151.570312 62.640625 C 150.136719 63.328125 148.761719 63.992188 147.640625 64.511719 C 148.214844 64.402344 148.796875 64.316406 149.386719 64.238281 Z M 147.640625 64.511719 C 148.214844 64.402344 148.796875 64.316406 149.386719 64.238281 C 150.503906 64.101562 151.085938 63.425781 151.570312 62.640625 C 150.136719 63.328125 148.761719 63.992188 147.640625 64.511719 Z M 156.300781 60.363281 C 156.675781 60.332031 157.054688 60.308594 157.4375 60.296875 C 158.6875 60.277344 159.304688 59.398438 160.050781 58.707031 C 160.304688 58.464844 158.625 59.25 156.300781 60.363281 Z M 209.625 169.210938 C 209.308594 169.007812 208.984375 168.824219 208.644531 168.636719 C 207.429688 168.222656 206.28125 167.628906 205.238281 166.816406 C 205.179688 166.773438 205.113281 166.726562 205.054688 166.675781 C 201.453125 163.75 200.046875 159.558594 194.960938 158.859375 C 192.195312 158.480469 189.34375 158.832031 186.613281 158.253906 C 186.128906 158.15625 185.632812 158.015625 185.234375 157.722656 C 184.648438 157.289062 184.34375 156.59375 183.988281 155.957031 C 183.078125 154.335938 181.691406 152.992188 180.054688 152.125 C 179.855469 152.019531 179.65625 151.929688 179.449219 151.835938 C 178.773438 151.539062 178.011719 151.324219 177.320312 151.566406 C 176.644531 151.808594 176.199219 152.441406 175.644531 152.890625 C 173.542969 154.59375 170.226562 153.578125 167.914062 154.972656 C 167.46875 155.242188 167.054688 155.601562 166.652344 155.972656 C 165.792969 156.742188 164.964844 157.535156 163.847656 157.558594 C 163.265625 157.570312 162.710938 157.355469 162.167969 157.121094 C 162.058594 157.074219 161.949219 157.027344 161.839844 156.980469 C 159.722656 156.082031 157.441406 155.542969 155.144531 155.40625 C 154.808594 155.382812 154.460938 155.371094 154.148438 155.503906 C 153.578125 155.738281 153.289062 156.359375 152.945312 156.875 C 151.546875 158.980469 148.914062 159.601562 146.523438 160.597656 C 146.519531 160.597656 146.519531 160.605469 146.511719 160.605469 C 145.667969 160.957031 144.863281 161.355469 144.144531 161.890625 C 143.601562 162.300781 143.09375 162.796875 142.445312 163.019531 C 141.753906 163.265625 141 163.171875 140.273438 163.074219 L 135.757812 162.46875 L 135.75 162.46875 L 131.402344 161.878906 C 131.929688 162.203125 132.457031 162.527344 132.976562 162.871094 C 137.257812 165.667969 141.125 169.101562 144.40625 173.03125 C 145.125 173.886719 145.828125 174.796875 146.152344 175.867188 C 146.402344 176.695312 146.410156 177.578125 146.5 178.4375 C 146.878906 181.984375 148.667969 185.203125 150.441406 188.296875 C 151.042969 189.34375 151.710938 190.449219 152.800781 190.960938 C 153.097656 191.105469 153.425781 191.195312 153.734375 191.300781 C 154.050781 191.402344 154.363281 191.523438 154.621094 191.71875 C 155.347656 192.253906 155.574219 193.214844 155.761719 194.097656 C 155.832031 194.445312 155.90625 194.792969 155.976562 195.144531 C 156.308594 196.730469 156.632812 198.316406 156.964844 199.902344 C 179.753906 190.585938 198.40625 180.765625 212.753906 172.179688 C 211.964844 170.933594 210.894531 169.996094 209.625 169.210938 Z M 209.625 169.210938 C 209.308594 169.007812 208.984375 168.824219 208.644531 168.636719 C 207.429688 168.222656 206.28125 167.628906 205.238281 166.816406 C 205.179688 166.773438 205.113281 166.726562 205.054688 166.675781 C 201.453125 163.75 200.046875 159.558594 194.960938 158.859375 C 192.195312 158.480469 189.34375 158.832031 186.613281 158.253906 C 186.128906 158.15625 185.632812 158.015625 185.234375 157.722656 C 184.648438 157.289062 184.34375 156.59375 183.988281 155.957031 C 183.078125 154.335938 181.691406 152.992188 180.054688 152.125 C 179.855469 152.019531 179.65625 151.929688 179.449219 151.835938 C 178.773438 151.539062 178.011719 151.324219 177.320312 151.566406 C 176.644531 151.808594 176.199219 152.441406 175.644531 152.890625 C 173.542969 154.59375 170.226562 153.578125 167.914062 154.972656 C 167.46875 155.242188 167.054688 155.601562 166.652344 155.972656 C 165.792969 156.742188 164.964844 157.535156 163.847656 157.558594 C 163.265625 157.570312 162.710938 157.355469 162.167969 157.121094 C 162.058594 157.074219 161.949219 157.027344 161.839844 156.980469 C 159.722656 156.082031 157.441406 155.542969 155.144531 155.40625 C 154.808594 155.382812 154.460938 155.371094 154.148438 155.503906 C 153.578125 155.738281 153.289062 156.359375 152.945312 156.875 C 151.546875 158.980469 148.914062 159.601562 146.523438 160.597656 C 146.519531 160.597656 146.519531 160.605469 146.511719 160.605469 C 145.667969 160.957031 144.863281 161.355469 144.144531 161.890625 C 143.601562 162.300781 143.09375 162.796875 142.445312 163.019531 C 141.753906 163.265625 141 163.171875 140.273438 163.074219 L 135.757812 162.46875 L 135.75 162.46875 L 131.402344 161.878906 C 131.929688 162.203125 132.457031 162.527344 132.976562 162.871094 C 137.257812 165.667969 141.125 169.101562 144.40625 173.03125 C 145.125 173.886719 145.828125 174.796875 146.152344 175.867188 C 146.402344 176.695312 146.410156 177.578125 146.5 178.4375 C 146.878906 181.984375 148.667969 185.203125 150.441406 188.296875 C 151.042969 189.34375 151.710938 190.449219 152.800781 190.960938 C 153.097656 191.105469 153.425781 191.195312 153.734375 191.300781 C 154.050781 191.402344 154.363281 191.523438 154.621094 191.71875 C 155.347656 192.253906 155.574219 193.214844 155.761719 194.097656 C 155.832031 194.445312 155.90625 194.792969 155.976562 195.144531 C 156.308594 196.730469 156.632812 198.316406 156.964844 199.902344 C 179.753906 190.585938 198.40625 180.765625 212.753906 172.179688 C 211.964844 170.933594 210.894531 169.996094 209.625 169.210938 Z M 156.300781 60.363281 C 156.675781 60.332031 157.054688 60.308594 157.4375 60.296875 C 158.6875 60.277344 159.304688 59.398438 160.050781 58.707031 C 160.304688 58.464844 158.625 59.25 156.300781 60.363281 Z M 147.640625 64.511719 C 148.214844 64.402344 148.796875 64.316406 149.386719 64.238281 C 150.503906 64.101562 151.085938 63.425781 151.570312 62.640625 C 150.136719 63.328125 148.761719 63.992188 147.640625 64.511719 Z M 147.640625 64.511719 C 148.214844 64.402344 148.796875 64.316406 149.386719 64.238281 C 150.503906 64.101562 151.085938 63.425781 151.570312 62.640625 C 150.136719 63.328125 148.761719 63.992188 147.640625 64.511719 Z M 156.300781 60.363281 C 156.675781 60.332031 157.054688 60.308594 157.4375 60.296875 C 158.6875 60.277344 159.304688 59.398438 160.050781 58.707031 C 160.304688 58.464844 158.625 59.25 156.300781 60.363281 Z M 209.625 169.210938 C 209.308594 169.007812 208.984375 168.824219 208.644531 168.636719 C 207.429688 168.222656 206.28125 167.628906 205.238281 166.816406 C 205.179688 166.773438 205.113281 166.726562 205.054688 166.675781 C 201.453125 163.75 200.046875 159.558594 194.960938 158.859375 C 192.195312 158.480469 189.34375 158.832031 186.613281 158.253906 C 186.128906 158.15625 185.632812 158.015625 185.234375 157.722656 C 184.648438 157.289062 184.34375 156.59375 183.988281 155.957031 C 183.078125 154.335938 181.691406 152.992188 180.054688 152.125 C 179.855469 152.019531 179.65625 151.929688 179.449219 151.835938 C 178.773438 151.539062 178.011719 151.324219 177.320312 151.566406 C 176.644531 151.808594 176.199219 152.441406 175.644531 152.890625 C 173.542969 154.59375 170.226562 153.578125 167.914062 154.972656 C 167.46875 155.242188 167.054688 155.601562 166.652344 155.972656 C 165.792969 156.742188 164.964844 157.535156 163.847656 157.558594 C 163.265625 157.570312 162.710938 157.355469 162.167969 157.121094 C 162.058594 157.074219 161.949219 157.027344 161.839844 156.980469 C 159.722656 156.082031 157.441406 155.542969 155.144531 155.40625 C 154.808594 155.382812 154.460938 155.371094 154.148438 155.503906 C 153.578125 155.738281 153.289062 156.359375 152.945312 156.875 C 151.546875 158.980469 148.914062 159.601562 146.523438 160.597656 C 146.519531 160.597656 146.519531 160.605469 146.511719 160.605469 C 145.667969 160.957031 144.863281 161.355469 144.144531 161.890625 C 143.601562 162.300781 143.09375 162.796875 142.445312 163.019531 C 141.753906 163.265625 141 163.171875 140.273438 163.074219 L 135.757812 162.46875 L 135.75 162.46875 L 131.402344 161.878906 C 131.929688 162.203125 132.457031 162.527344 132.976562 162.871094 C 137.257812 165.667969 141.125 169.101562 144.40625 173.03125 C 145.125 173.886719 145.828125 174.796875 146.152344 175.867188 C 146.402344 176.695312 146.410156 177.578125 146.5 178.4375 C 146.878906 181.984375 148.667969 185.203125 150.441406 188.296875 C 151.042969 189.34375 151.710938 190.449219 152.800781 190.960938 C 153.097656 191.105469 153.425781 191.195312 153.734375 191.300781 C 154.050781 191.402344 154.363281 191.523438 154.621094 191.71875 C 155.347656 192.253906 155.574219 193.214844 155.761719 194.097656 C 155.832031 194.445312 155.90625 194.792969 155.976562 195.144531 C 156.308594 196.730469 156.632812 198.316406 156.964844 199.902344 C 179.753906 190.585938 198.40625 180.765625 212.753906 172.179688 C 211.964844 170.933594 210.894531 169.996094 209.625 169.210938 Z M 168.019531 209.734375 C 167.691406 211.257812 166.496094 218.359375 166.601562 219.910156 C 191.664062 205.753906 210.195312 189.988281 219.160156 181.695312 C 219.160156 179.707031 217.46875 177.523438 217.46875 177.523438 C 217.46875 177.523438 184.816406 200.761719 168.019531 209.734375 Z M 209.625 169.210938 C 209.308594 169.007812 208.984375 168.824219 208.644531 168.636719 C 207.429688 168.222656 206.28125 167.628906 205.238281 166.816406 C 205.179688 166.773438 205.113281 166.726562 205.054688 166.675781 C 201.453125 163.75 200.046875 159.558594 194.960938 158.859375 C 192.195312 158.480469 189.34375 158.832031 186.613281 158.253906 C 186.128906 158.15625 185.632812 158.015625 185.234375 157.722656 C 184.648438 157.289062 184.34375 156.59375 183.988281 155.957031 C 183.078125 154.335938 181.691406 152.992188 180.054688 152.125 C 179.855469 152.019531 179.65625 151.929688 179.449219 151.835938 C 178.773438 151.539062 178.011719 151.324219 177.320312 151.566406 C 176.644531 151.808594 176.199219 152.441406 175.644531 152.890625 C 173.542969 154.59375 170.226562 153.578125 167.914062 154.972656 C 167.46875 155.242188 167.054688 155.601562 166.652344 155.972656 C 165.792969 156.742188 164.964844 157.535156 163.847656 157.558594 C 163.265625 157.570312 162.710938 157.355469 162.167969 157.121094 C 162.058594 157.074219 161.949219 157.027344 161.839844 156.980469 C 159.722656 156.082031 157.441406 155.542969 155.144531 155.40625 C 154.808594 155.382812 154.460938 155.371094 154.148438 155.503906 C 153.578125 155.738281 153.289062 156.359375 152.945312 156.875 C 151.546875 158.980469 148.914062 159.601562 146.523438 160.597656 C 146.519531 160.597656 146.519531 160.605469 146.511719 160.605469 C 145.667969 160.957031 144.863281 161.355469 144.144531 161.890625 C 143.601562 162.300781 143.09375 162.796875 142.445312 163.019531 C 141.753906 163.265625 141 163.171875 140.273438 163.074219 L 135.757812 162.46875 L 135.75 162.46875 L 131.402344 161.878906 C 131.929688 162.203125 132.457031 162.527344 132.976562 162.871094 C 137.257812 165.667969 141.125 169.101562 144.40625 173.03125 C 145.125 173.886719 145.828125 174.796875 146.152344 175.867188 C 146.402344 176.695312 146.410156 177.578125 146.5 178.4375 C 146.878906 181.984375 148.667969 185.203125 150.441406 188.296875 C 151.042969 189.34375 151.710938 190.449219 152.800781 190.960938 C 153.097656 191.105469 153.425781 191.195312 153.734375 191.300781 C 154.050781 191.402344 154.363281 191.523438 154.621094 191.71875 C 155.347656 192.253906 155.574219 193.214844 155.761719 194.097656 C 155.832031 194.445312 155.90625 194.792969 155.976562 195.144531 C 156.308594 196.730469 156.632812 198.316406 156.964844 199.902344 C 179.753906 190.585938 198.40625 180.765625 212.753906 172.179688 C 211.964844 170.933594 210.894531 169.996094 209.625 169.210938 Z M 156.300781 60.363281 C 156.675781 60.332031 157.054688 60.308594 157.4375 60.296875 C 158.6875 60.277344 159.304688 59.398438 160.050781 58.707031 C 160.304688 58.464844 158.625 59.25 156.300781 60.363281 Z M 147.640625 64.511719 C 148.214844 64.402344 148.796875 64.316406 149.386719 64.238281 C 150.503906 64.101562 151.085938 63.425781 151.570312 62.640625 C 150.136719 63.328125 148.761719 63.992188 147.640625 64.511719 Z M 147.640625 64.511719 C 148.214844 64.402344 148.796875 64.316406 149.386719 64.238281 C 150.503906 64.101562 151.085938 63.425781 151.570312 62.640625 C 150.136719 63.328125 148.761719 63.992188 147.640625 64.511719 Z M 156.300781 60.363281 C 156.675781 60.332031 157.054688 60.308594 157.4375 60.296875 C 158.6875 60.277344 159.304688 59.398438 160.050781 58.707031 C 160.304688 58.464844 158.625 59.25 156.300781 60.363281 Z M 209.625 169.210938 C 209.308594 169.007812 208.984375 168.824219 208.644531 168.636719 C 207.429688 168.222656 206.28125 167.628906 205.238281 166.816406 C 205.179688 166.773438 205.113281 166.726562 205.054688 166.675781 C 201.453125 163.75 200.046875 159.558594 194.960938 158.859375 C 192.195312 158.480469 189.34375 158.832031 186.613281 158.253906 C 186.128906 158.15625 185.632812 158.015625 185.234375 157.722656 C 184.648438 157.289062 184.34375 156.59375 183.988281 155.957031 C 183.078125 154.335938 181.691406 152.992188 180.054688 152.125 C 179.855469 152.019531 179.65625 151.929688 179.449219 151.835938 C 178.773438 151.539062 178.011719 151.324219 177.320312 151.566406 C 176.644531 151.808594 176.199219 152.441406 175.644531 152.890625 C 173.542969 154.59375 170.226562 153.578125 167.914062 154.972656 C 167.46875 155.242188 167.054688 155.601562 166.652344 155.972656 C 165.792969 156.742188 164.964844 157.535156 163.847656 157.558594 C 163.265625 157.570312 162.710938 157.355469 162.167969 157.121094 C 162.058594 157.074219 161.949219 157.027344 161.839844 156.980469 C 159.722656 156.082031 157.441406 155.542969 155.144531 155.40625 C 154.808594 155.382812 154.460938 155.371094 154.148438 155.503906 C 153.578125 155.738281 153.289062 156.359375 152.945312 156.875 C 151.546875 158.980469 148.914062 159.601562 146.523438 160.597656 C 146.519531 160.597656 146.519531 160.605469 146.511719 160.605469 C 145.667969 160.957031 144.863281 161.355469 144.144531 161.890625 C 143.601562 162.300781 143.09375 162.796875 142.445312 163.019531 C 141.753906 163.265625 141 163.171875 140.273438 163.074219 L 135.757812 162.46875 L 135.75 162.46875 L 131.402344 161.878906 C 131.929688 162.203125 132.457031 162.527344 132.976562 162.871094 C 137.257812 165.667969 141.125 169.101562 144.40625 173.03125 C 145.125 173.886719 145.828125 174.796875 146.152344 175.867188 C 146.402344 176.695312 146.410156 177.578125 146.5 178.4375 C 146.878906 181.984375 148.667969 185.203125 150.441406 188.296875 C 151.042969 189.34375 151.710938 190.449219 152.800781 190.960938 C 153.097656 191.105469 153.425781 191.195312 153.734375 191.300781 C 154.050781 191.402344 154.363281 191.523438 154.621094 191.71875 C 155.347656 192.253906 155.574219 193.214844 155.761719 194.097656 C 155.832031 194.445312 155.90625 194.792969 155.976562 195.144531 C 156.308594 196.730469 156.632812 198.316406 156.964844 199.902344 C 179.753906 190.585938 198.40625 180.765625 212.753906 172.179688 C 211.964844 170.933594 210.894531 169.996094 209.625 169.210938 Z M 156.300781 60.363281 C 156.675781 60.332031 157.054688 60.308594 157.4375 60.296875 C 158.6875 60.277344 159.304688 59.398438 160.050781 58.707031 C 160.304688 58.464844 158.625 59.25 156.300781 60.363281 Z M 147.640625 64.511719 C 148.214844 64.402344 148.796875 64.316406 149.386719 64.238281 C 150.503906 64.101562 151.085938 63.425781 151.570312 62.640625 C 150.136719 63.328125 148.761719 63.992188 147.640625 64.511719 Z M 147.640625 64.511719 C 148.214844 64.402344 148.796875 64.316406 149.386719 64.238281 C 150.503906 64.101562 151.085938 63.425781 151.570312 62.640625 C 150.136719 63.328125 148.761719 63.992188 147.640625 64.511719 Z M 156.300781 60.363281 C 156.675781 60.332031 157.054688 60.308594 157.4375 60.296875 C 158.6875 60.277344 159.304688 59.398438 160.050781 58.707031 C 160.304688 58.464844 158.625 59.25 156.300781 60.363281 Z M 156.300781 60.363281 C 156.675781 60.332031 157.054688 60.308594 157.4375 60.296875 C 158.6875 60.277344 159.304688 59.398438 160.050781 58.707031 C 160.304688 58.464844 158.625 59.25 156.300781 60.363281 Z M 147.640625 64.511719 C 148.214844 64.402344 148.796875 64.316406 149.386719 64.238281 C 150.503906 64.101562 151.085938 63.425781 151.570312 62.640625 C 150.136719 63.328125 148.761719 63.992188 147.640625 64.511719 Z M 147.640625 64.511719 " fill-opacity="1" fill-rule="nonzero"/><path fill="#1c61ad" d="M 283.972656 103.152344 C 252.800781 133.21875 205.613281 181.246094 155.976562 195.136719 C 126.625 204.703125 104.394531 210.339844 78.519531 204.570312 C 39.925781 193.304688 42.621094 143.5625 70.101562 118.222656 L 68.511719 128.078125 C 68.40625 128.523438 66.339844 135.886719 71.261719 146.097656 C 79.316406 162.8125 196.878906 161.535156 282.441406 97.550781 C 278.871094 100.222656 282.269531 98.996094 283.964844 103.148438 Z M 283.972656 103.152344 " fill-opacity="1" fill-rule="nonzero"/><path fill="#ffffff" d="M 68.507812 128.539062 C 64.015625 135.9375 62.554688 142.804688 64.71875 148.648438 C 73.171875 171.457031 133.074219 168.105469 199.984375 145.347656 C 234.421875 133.636719 264.707031 113.550781 282.773438 99.960938 C 293.644531 91.777344 300.089844 85.953125 300.34375 85.71875 C 300.351562 85.707031 300.355469 85.707031 300.355469 85.707031 L 300.34375 85.71875 C 300.066406 86.046875 294.113281 92.941406 283.964844 103.152344 C 279.792969 107.355469 274.902344 112.125 269.410156 117.230469 C 246.652344 138.382812 213.480469 165.296875 177.261719 181.828125 C 130.613281 203.117188 73.539062 213.753906 59.28125 185.027344 C 50.824219 167.984375 52.125 147.402344 68.730469 126.449219 Z M 68.507812 128.539062 " fill-opacity="1" fill-rule="nonzero"/><g clip-path="url(#4d228f3c9a)"><path fill="#1c61ad" d="M 270.636719 108.402344 C 270.636719 108.402344 315.074219 78.976562 334.648438 52.246094 C 335.652344 50.867188 334.738281 48.878906 333.050781 48.65625 C 319.804688 46.894531 308.070312 57.765625 300.738281 64.914062 C 292.777344 72.671875 270.46875 95.15625 270.46875 95.15625 L 253.445312 93.550781 L 248.96875 98.195312 L 252.054688 98.753906 L 270.640625 108.40625 Z M 270.636719 108.402344 " fill-opacity="1" fill-rule="nonzero"/></g><path fill="#1c61ad" d="M 299.871094 66.085938 C 299.511719 67.164062 273.3125 53.234375 250.863281 46.398438 C 249.183594 45.886719 248.183594 48.292969 249.640625 49.253906 C 260.679688 56.566406 275.851562 65.351562 283.183594 79.183594 L 293.15625 72.730469 L 299.871094 66.082031 Z M 299.871094 66.085938 " fill-opacity="1" fill-rule="nonzero"/><path fill="#1c61ad" d="M 279.210938 48.445312 C 279.359375 48.601562 279.46875 48.792969 279.535156 49.023438 C 279.601562 49.25 279.625 49.511719 279.605469 49.804688 C 279.589844 50.09375 279.53125 50.410156 279.429688 50.753906 C 279.328125 51.097656 279.183594 51.460938 279.003906 51.839844 C 278.824219 52.222656 278.605469 52.617188 278.351562 53.023438 C 278.097656 53.425781 277.8125 53.835938 277.496094 54.25 C 277.179688 54.664062 276.835938 55.074219 276.46875 55.480469 C 276.101562 55.886719 275.714844 56.28125 275.308594 56.664062 C 274.90625 57.046875 274.492188 57.410156 274.066406 57.753906 C 273.640625 58.101562 273.210938 58.417969 272.78125 58.714844 C 272.351562 59.007812 271.925781 59.269531 271.507812 59.5 C 271.089844 59.730469 270.6875 59.925781 270.296875 60.085938 C 269.90625 60.246094 269.535156 60.367188 269.1875 60.449219 C 268.839844 60.53125 268.519531 60.574219 268.230469 60.578125 C 267.9375 60.578125 267.679688 60.539062 267.457031 60.460938 C 267.230469 60.382812 267.046875 60.261719 266.898438 60.105469 C 266.75 59.949219 266.640625 59.757812 266.574219 59.527344 C 266.507812 59.300781 266.484375 59.039062 266.503906 58.75 C 266.519531 58.457031 266.582031 58.140625 266.683594 57.796875 C 266.785156 57.453125 266.925781 57.09375 267.105469 56.710938 C 267.289062 56.328125 267.503906 55.933594 267.757812 55.53125 C 268.011719 55.125 268.296875 54.714844 268.613281 54.300781 C 268.933594 53.886719 269.273438 53.476562 269.640625 53.070312 C 270.007812 52.664062 270.394531 52.269531 270.800781 51.886719 C 271.203125 51.503906 271.621094 51.140625 272.042969 50.796875 C 272.46875 50.453125 272.898438 50.132812 273.328125 49.839844 C 273.757812 49.542969 274.183594 49.28125 274.601562 49.050781 C 275.019531 48.820312 275.425781 48.625 275.816406 48.464844 C 276.207031 48.304688 276.574219 48.183594 276.921875 48.101562 C 277.269531 48.019531 277.589844 47.976562 277.882812 47.976562 C 278.171875 47.972656 278.429688 48.011719 278.65625 48.089844 C 278.878906 48.171875 279.066406 48.289062 279.210938 48.445312 Z M 279.210938 48.445312 " fill-opacity="1" fill-rule="nonzero"/><path fill="#1c61ad" d="M 293.726562 55.503906 C 293.902344 55.691406 294.03125 55.921875 294.113281 56.199219 C 294.191406 56.472656 294.222656 56.785156 294.199219 57.136719 C 294.179688 57.488281 294.105469 57.871094 293.984375 58.285156 C 293.859375 58.695312 293.691406 59.132812 293.472656 59.59375 C 293.253906 60.050781 292.992188 60.527344 292.683594 61.015625 C 292.378906 61.503906 292.035156 61.996094 291.652344 62.496094 C 291.273438 62.992188 290.859375 63.488281 290.417969 63.976562 C 289.972656 64.464844 289.507812 64.941406 289.019531 65.402344 C 288.535156 65.863281 288.035156 66.300781 287.523438 66.71875 C 287.007812 67.132812 286.492188 67.519531 285.976562 67.871094 C 285.457031 68.226562 284.945312 68.542969 284.441406 68.820312 C 283.9375 69.101562 283.449219 69.335938 282.980469 69.527344 C 282.507812 69.71875 282.066406 69.867188 281.644531 69.964844 C 281.226562 70.066406 280.839844 70.117188 280.492188 70.117188 C 280.140625 70.121094 279.828125 70.074219 279.558594 69.980469 C 279.289062 69.882812 279.066406 69.742188 278.886719 69.550781 C 278.707031 69.363281 278.578125 69.132812 278.5 68.855469 C 278.417969 68.582031 278.390625 68.269531 278.414062 67.917969 C 278.433594 67.566406 278.507812 67.183594 278.628906 66.773438 C 278.75 66.359375 278.921875 65.921875 279.140625 65.460938 C 279.359375 65.003906 279.621094 64.527344 279.925781 64.039062 C 280.234375 63.550781 280.578125 63.058594 280.957031 62.558594 C 281.339844 62.0625 281.753906 61.566406 282.195312 61.078125 C 282.636719 60.589844 283.105469 60.113281 283.589844 59.652344 C 284.078125 59.191406 284.578125 58.753906 285.089844 58.335938 C 285.601562 57.921875 286.117188 57.535156 286.636719 57.183594 C 287.15625 56.828125 287.667969 56.511719 288.171875 56.234375 C 288.675781 55.957031 289.160156 55.71875 289.632812 55.527344 C 290.101562 55.335938 290.546875 55.1875 290.964844 55.089844 C 291.386719 54.988281 291.769531 54.9375 292.121094 54.9375 C 292.472656 54.933594 292.78125 54.980469 293.054688 55.078125 C 293.324219 55.171875 293.546875 55.3125 293.726562 55.503906 Z M 293.726562 55.503906 " fill-opacity="1" fill-rule="nonzero"/><path fill="#1c61ad" d="M 310.773438 81.210938 C 310.773438 81.210938 311.628906 110.335938 306.082031 129.15625 C 305.726562 130.351562 304.007812 130.234375 303.828125 129.003906 C 302.261719 118.222656 302.703125 104.386719 295.660156 93.785156 L 310.773438 81.214844 Z M 310.773438 81.210938 " fill-opacity="1" fill-rule="nonzero"/><path fill="#1c61ad" d="M 317.433594 103.109375 C 317.507812 103.277344 317.535156 103.460938 317.519531 103.660156 C 317.503906 103.859375 317.449219 104.074219 317.351562 104.296875 C 317.25 104.523438 317.109375 104.757812 316.929688 104.996094 C 316.75 105.238281 316.53125 105.484375 316.277344 105.730469 C 316.023438 105.980469 315.734375 106.226562 315.417969 106.472656 C 315.097656 106.71875 314.753906 106.960938 314.382812 107.195312 C 314.011719 107.429688 313.621094 107.652344 313.210938 107.863281 C 312.800781 108.078125 312.382812 108.277344 311.949219 108.460938 C 311.519531 108.644531 311.085938 108.8125 310.648438 108.960938 C 310.210938 109.105469 309.777344 109.234375 309.351562 109.339844 C 308.925781 109.445312 308.515625 109.53125 308.117188 109.589844 C 307.71875 109.648438 307.34375 109.6875 306.988281 109.699219 C 306.632812 109.710938 306.304688 109.699219 306.007812 109.660156 C 305.707031 109.625 305.441406 109.5625 305.210938 109.480469 C 304.980469 109.394531 304.789062 109.289062 304.632812 109.160156 C 304.480469 109.035156 304.367188 108.886719 304.296875 108.71875 C 304.226562 108.550781 304.195312 108.367188 304.210938 108.167969 C 304.226562 107.96875 304.28125 107.753906 304.382812 107.53125 C 304.480469 107.304688 304.621094 107.070312 304.800781 106.832031 C 304.980469 106.589844 305.199219 106.34375 305.453125 106.097656 C 305.707031 105.847656 305.996094 105.601562 306.3125 105.355469 C 306.632812 105.109375 306.976562 104.867188 307.351562 104.632812 C 307.722656 104.398438 308.109375 104.175781 308.519531 103.964844 C 308.929688 103.75 309.351562 103.550781 309.78125 103.367188 C 310.210938 103.183594 310.648438 103.015625 311.082031 102.867188 C 311.519531 102.722656 311.953125 102.59375 312.378906 102.488281 C 312.804688 102.382812 313.214844 102.296875 313.613281 102.238281 C 314.011719 102.179688 314.386719 102.140625 314.742188 102.128906 C 315.097656 102.117188 315.425781 102.128906 315.726562 102.167969 C 316.023438 102.203125 316.289062 102.265625 316.519531 102.347656 C 316.75 102.433594 316.941406 102.539062 317.097656 102.667969 C 317.25 102.792969 317.363281 102.941406 317.433594 103.109375 Z M 317.433594 103.109375 " fill-opacity="1" fill-rule="nonzero"/><path fill="#1c61ad" d="M 316.867188 89.515625 C 316.953125 89.71875 316.988281 89.9375 316.96875 90.179688 C 316.953125 90.421875 316.882812 90.675781 316.765625 90.949219 C 316.644531 91.21875 316.476562 91.5 316.257812 91.789062 C 316.042969 92.082031 315.78125 92.375 315.472656 92.675781 C 315.167969 92.972656 314.820312 93.273438 314.4375 93.570312 C 314.054688 93.863281 313.636719 94.152344 313.191406 94.4375 C 312.742188 94.71875 312.273438 94.988281 311.78125 95.246094 C 311.289062 95.5 310.78125 95.742188 310.261719 95.960938 C 309.742188 96.183594 309.21875 96.382812 308.695312 96.5625 C 308.167969 96.738281 307.648438 96.894531 307.136719 97.019531 C 306.621094 97.148438 306.125 97.25 305.648438 97.320312 C 305.167969 97.394531 304.714844 97.4375 304.285156 97.453125 C 303.859375 97.464844 303.464844 97.449219 303.105469 97.40625 C 302.746094 97.363281 302.425781 97.289062 302.148438 97.1875 C 301.867188 97.085938 301.636719 96.957031 301.453125 96.804688 C 301.265625 96.648438 301.128906 96.472656 301.046875 96.269531 C 300.960938 96.070312 300.925781 95.847656 300.941406 95.605469 C 300.960938 95.367188 301.027344 95.109375 301.148438 94.839844 C 301.265625 94.570312 301.433594 94.289062 301.652344 93.996094 C 301.871094 93.707031 302.132812 93.410156 302.4375 93.113281 C 302.746094 92.8125 303.089844 92.515625 303.476562 92.21875 C 303.859375 91.921875 304.273438 91.632812 304.722656 91.351562 C 305.167969 91.070312 305.640625 90.800781 306.132812 90.542969 C 306.625 90.285156 307.128906 90.046875 307.648438 89.824219 C 308.167969 89.605469 308.691406 89.402344 309.21875 89.226562 C 309.746094 89.046875 310.265625 88.894531 310.777344 88.765625 C 311.289062 88.640625 311.785156 88.539062 312.265625 88.464844 C 312.746094 88.394531 313.199219 88.351562 313.625 88.335938 C 314.054688 88.320312 314.449219 88.335938 314.808594 88.382812 C 315.167969 88.425781 315.488281 88.5 315.765625 88.597656 C 316.042969 88.699219 316.273438 88.828125 316.460938 88.984375 C 316.644531 89.136719 316.78125 89.316406 316.867188 89.515625 Z M 316.867188 89.515625 " fill-opacity="1" fill-rule="nonzero"/><path fill="#63cbf7" d="M 314.359375 196.242188 L 312.304688 195.535156 C 317.371094 180.847656 319.933594 165.445312 319.933594 149.753906 C 319.933594 138.988281 318.710938 128.257812 316.296875 117.867188 L 318.421875 117.375 C 320.871094 127.925781 322.113281 138.820312 322.113281 149.753906 C 322.113281 165.683594 319.503906 181.328125 314.359375 196.242188 Z M 314.359375 196.242188 " fill-opacity="1" fill-rule="nonzero"/><g clip-path="url(#82ce7cef10)"><path fill="#63cbf7" d="M 134.058594 284.59375 C 76.410156 264.949219 37.683594 210.761719 37.683594 149.753906 C 37.683594 134.3125 40.140625 119.132812 44.972656 104.625 L 47.035156 105.316406 C 42.273438 119.601562 39.855469 134.550781 39.855469 149.753906 C 39.855469 209.832031 77.988281 263.1875 134.753906 282.53125 L 134.054688 284.597656 Z M 134.058594 284.59375 " fill-opacity="1" fill-rule="nonzero"/></g><g clip-path="url(#2d8a577854)"><path fill="#63cbf7" d="M 271.105469 43.34375 C 253.816406 28.46875 232.988281 17.964844 210.867188 12.96875 L 211.34375 10.84375 C 233.808594 15.921875 254.964844 26.589844 272.523438 41.691406 Z M 271.105469 43.34375 " fill-opacity="1" fill-rule="nonzero"/></g><path fill="#1c61ad" d="M 249.769531 151.8125 C 246.007812 155.066406 233.867188 165.378906 217.46875 177.523438 C 203.285156 188.03125 185.910156 199.902344 168.019531 209.734375 C 154.882812 216.960938 141.46875 223.089844 128.832031 226.78125 C 119.921875 229.382812 112.511719 230.804688 106.371094 231.339844 C 103.457031 231.589844 100.828125 231.644531 98.472656 231.527344 C 77.28125 230.503906 77.320312 215.96875 81.902344 210.617188 C 81.917969 210.589844 81.9375 210.566406 81.957031 210.546875 C 82.179688 210.898438 83.769531 213.28125 83.957031 213.574219 C 85.027344 215.308594 88.101562 217.25 93.757812 218.179688 C 103.757812 219.828125 121.828125 218.3125 151.210938 206.894531 C 154.835938 205.480469 158.367188 204.058594 161.796875 202.625 C 183.558594 193.539062 201.421875 184.078125 215.296875 175.761719 C 234.582031 164.207031 246.160156 154.859375 249.769531 151.8125 Z M 249.769531 151.8125 " fill-opacity="1" fill-rule="nonzero"/><path fill="#1c61ad" d="M 151.546875 230.804688 C 122.09375 244.789062 112.15625 243.359375 108.820312 240.488281 C 108.273438 240.019531 106.125 237.992188 105.984375 238.234375 C 102.550781 244.304688 106.335938 259.777344 141.128906 246.804688 C 179.269531 232.585938 227.144531 177.75 227.144531 177.75 C 227.144531 177.75 197.703125 208.882812 151.546875 230.804688 Z M 151.546875 230.804688 " fill-opacity="1" fill-rule="nonzero"/><g fill="#1c61ad" fill-opacity="1"><g transform="translate(40.906518, 336.230836)"><g><path d="M 20.78125 0 L 10.5625 0 L 10.5625 -29.46875 L 1.3125 -29.46875 L 1.3125 -37.828125 L 30 -37.828125 L 30 -29.46875 L 20.78125 -29.46875 Z M 20.78125 0 "/></g></g></g><g fill="#1c61ad" fill-opacity="1"><g transform="translate(72.215377, 336.230836)"><g><path d="M 16.484375 -37.828125 C 19.921875 -37.828125 22.773438 -37.410156 25.046875 -36.578125 C 27.328125 -35.742188 29.039062 -34.5 30.1875 -32.84375 C 31.332031 -31.1875 31.90625 -29.125 31.90625 -26.65625 C 31.90625 -25.125 31.644531 -23.726562 31.125 -22.46875 C 30.613281 -21.207031 29.878906 -20.078125 28.921875 -19.078125 C 27.960938 -18.085938 26.816406 -17.222656 25.484375 -16.484375 L 36.515625 0 L 24.921875 0 L 16.90625 -13.765625 L 14.3125 -13.765625 L 14.3125 0 L 4.09375 0 L 4.09375 -37.828125 Z M 16.328125 -30.09375 L 14.3125 -30.09375 L 14.3125 -21.453125 L 16.21875 -21.453125 C 17.789062 -21.453125 19.078125 -21.796875 20.078125 -22.484375 C 21.078125 -23.179688 21.578125 -24.414062 21.578125 -26.1875 C 21.578125 -27.414062 21.160156 -28.375 20.328125 -29.0625 C 19.503906 -29.75 18.171875 -30.09375 16.328125 -30.09375 Z M 16.328125 -30.09375 "/></g></g></g><g fill="#1c61ad" fill-opacity="1"><g transform="translate(108.078251, 336.230836)"><g><path d="M 4.09375 0 L 4.09375 -37.828125 L 14.359375 -37.828125 L 14.359375 0 Z M 4.09375 0 "/></g></g></g><g fill="#1c61ad" fill-opacity="1"><g transform="translate(126.52719, 336.230836)"><g><path d="M 17.1875 -37.828125 C 21.976562 -37.828125 25.566406 -36.785156 27.953125 -34.703125 C 30.347656 -32.617188 31.546875 -29.648438 31.546875 -25.796875 C 31.546875 -24.078125 31.300781 -22.421875 30.8125 -20.828125 C 30.320312 -19.242188 29.519531 -17.828125 28.40625 -16.578125 C 27.289062 -15.335938 25.8125 -14.351562 23.96875 -13.625 C 22.132812 -12.90625 19.875 -12.546875 17.1875 -12.546875 L 14.3125 -12.546875 L 14.3125 0 L 4.09375 0 L 4.09375 -37.828125 Z M 16.953125 -29.578125 L 14.3125 -29.578125 L 14.3125 -20.890625 L 16.328125 -20.890625 C 17.210938 -20.890625 18.03125 -21.039062 18.78125 -21.34375 C 19.539062 -21.644531 20.148438 -22.132812 20.609375 -22.8125 C 21.066406 -23.488281 21.296875 -24.398438 21.296875 -25.546875 C 21.296875 -26.734375 20.941406 -27.703125 20.234375 -28.453125 C 19.523438 -29.203125 18.429688 -29.578125 16.953125 -29.578125 Z M 16.953125 -29.578125 "/></g></g></g><g fill="#1c61ad" fill-opacity="1"><g transform="translate(160.009557, 336.230836)"><g/></g></g><g fill="#1c61ad" fill-opacity="1"><g transform="translate(173.775104, 336.230836)"><g><path d="M 20.78125 0 L 10.5625 0 L 10.5625 -29.46875 L 1.3125 -29.46875 L 1.3125 -37.828125 L 30 -37.828125 L 30 -29.46875 L 20.78125 -29.46875 Z M 20.78125 0 "/></g></g></g><g fill="#1c61ad" fill-opacity="1"><g transform="translate(205.083963, 336.230836)"><g><path d="M 27.296875 0 L 25.4375 -7.09375 L 13.140625 -7.09375 L 11.234375 0 L 0 0 L 12.34375 -37.984375 L 25.984375 -37.984375 L 38.484375 0 Z M 23.3125 -15.46875 L 21.6875 -21.6875 C 21.507812 -22.363281 21.253906 -23.328125 20.921875 -24.578125 C 20.597656 -25.828125 20.273438 -27.117188 19.953125 -28.453125 C 19.640625 -29.785156 19.398438 -30.882812 19.234375 -31.75 C 19.078125 -30.882812 18.851562 -29.816406 18.5625 -28.546875 C 18.28125 -27.285156 17.988281 -26.03125 17.6875 -24.78125 C 17.382812 -23.539062 17.125 -22.507812 16.90625 -21.6875 L 15.265625 -15.46875 Z M 23.3125 -15.46875 "/></g></g></g><g fill="#1c61ad" fill-opacity="1"><g transform="translate(243.560222, 336.230836)"><g><path d="M 4.09375 0 L 4.09375 -37.828125 L 14.3125 -37.828125 L 14.3125 -8.25 L 28.875 -8.25 L 28.875 0 Z M 4.09375 0 "/></g></g></g><g fill="#1c61ad" fill-opacity="1"><g transform="translate(274.40333, 336.230836)"><g><path d="M 26.546875 0 L 4.09375 0 L 4.09375 -37.828125 L 26.546875 -37.828125 L 26.546875 -29.625 L 14.3125 -29.625 L 14.3125 -23.671875 L 25.640625 -23.671875 L 25.640625 -15.46875 L 14.3125 -15.46875 L 14.3125 -8.328125 L 26.546875 -8.328125 Z M 26.546875 0 "/></g></g></g><g fill="#1c61ad" fill-opacity="1"><g transform="translate(303.486931, 336.230836)"><g><path d="M 28.828125 -11.484375 C 28.828125 -9.429688 28.304688 -7.488281 27.265625 -5.65625 C 26.234375 -3.820312 24.625 -2.332031 22.4375 -1.1875 C 20.257812 -0.0507812 17.445312 0.515625 14 0.515625 C 12.269531 0.515625 10.753906 0.4375 9.453125 0.28125 C 8.148438 0.125 6.9375 -0.128906 5.8125 -0.484375 C 4.695312 -0.835938 3.535156 -1.296875 2.328125 -1.859375 L 2.328125 -10.96875 C 4.378906 -9.9375 6.445312 -9.148438 8.53125 -8.609375 C 10.625 -8.066406 12.515625 -7.796875 14.203125 -7.796875 C 15.222656 -7.796875 16.054688 -7.914062 16.703125 -8.15625 C 17.347656 -8.394531 17.828125 -8.722656 18.140625 -9.140625 C 18.453125 -9.566406 18.609375 -10.054688 18.609375 -10.609375 C 18.609375 -11.265625 18.378906 -11.820312 17.921875 -12.28125 C 17.460938 -12.738281 16.734375 -13.21875 15.734375 -13.71875 C 14.734375 -14.21875 13.414062 -14.835938 11.78125 -15.578125 C 10.375 -16.234375 9.101562 -16.90625 7.96875 -17.59375 C 6.84375 -18.289062 5.878906 -19.082031 5.078125 -19.96875 C 4.273438 -20.851562 3.660156 -21.890625 3.234375 -23.078125 C 2.804688 -24.273438 2.59375 -25.679688 2.59375 -27.296875 C 2.59375 -29.734375 3.191406 -31.773438 4.390625 -33.421875 C 5.585938 -35.066406 7.257812 -36.300781 9.40625 -37.125 C 11.550781 -37.957031 14.03125 -38.375 16.84375 -38.375 C 19.3125 -38.375 21.53125 -38.097656 23.5 -37.546875 C 25.476562 -36.992188 27.253906 -36.363281 28.828125 -35.65625 L 25.703125 -27.765625 C 24.078125 -28.503906 22.476562 -29.09375 20.90625 -29.53125 C 19.34375 -29.976562 17.882812 -30.203125 16.53125 -30.203125 C 15.65625 -30.203125 14.9375 -30.09375 14.375 -29.875 C 13.8125 -29.65625 13.394531 -29.363281 13.125 -29 C 12.863281 -28.644531 12.734375 -28.234375 12.734375 -27.765625 C 12.734375 -27.179688 12.960938 -26.65625 13.421875 -26.1875 C 13.878906 -25.71875 14.644531 -25.210938 15.71875 -24.671875 C 16.800781 -24.128906 18.273438 -23.425781 20.140625 -22.5625 C 21.984375 -21.738281 23.550781 -20.847656 24.84375 -19.890625 C 26.132812 -18.929688 27.117188 -17.78125 27.796875 -16.4375 C 28.484375 -15.101562 28.828125 -13.453125 28.828125 -11.484375 Z M 28.828125 -11.484375 "/></g></g></g></svg>