<svg xmlns="http://www.w3.org/2000/svg" xmlns:xlink="http://www.w3.org/1999/xlink" width="500" zoomAndPan="magnify" viewBox="0 0 375 374.999991" height="500" preserveAspectRatio="xMidYMid meet" version="1.0"><defs><clipPath id="052c30162a"><path d="M 237 80 L 300.996094 80 L 300.996094 125 L 237 125 Z M 237 80 " clip-rule="nonzero"/></clipPath><clipPath id="df6ff20b16"><path d="M 82.746094 121 L 155 121 L 155 253.546875 L 82.746094 253.546875 Z M 82.746094 121 " clip-rule="nonzero"/></clipPath><clipPath id="28db225957"><path d="M 209 53.296875 L 256 53.296875 L 256 78 L 209 78 Z M 209 53.296875 " clip-rule="nonzero"/></clipPath></defs><path fill="#63cbf7" d="M 169.824219 89.523438 C 170.097656 89.5 170.378906 89.484375 170.65625 89.476562 C 171.574219 89.460938 172.027344 88.816406 172.574219 88.3125 C 172.761719 88.136719 171.527344 88.710938 169.824219 89.523438 Z M 163.476562 92.558594 C 163.898438 92.476562 164.328125 92.414062 164.757812 92.359375 C 165.574219 92.257812 166.003906 91.765625 166.355469 91.191406 C 165.308594 91.691406 164.296875 92.179688 163.476562 92.558594 Z M 163.476562 92.558594 C 163.898438 92.476562 164.328125 92.414062 164.757812 92.359375 C 165.574219 92.257812 166.003906 91.765625 166.355469 91.191406 C 165.308594 91.691406 164.296875 92.179688 163.476562 92.558594 Z M 169.824219 89.523438 C 170.097656 89.5 170.378906 89.484375 170.65625 89.476562 C 171.574219 89.460938 172.027344 88.816406 172.574219 88.3125 C 172.761719 88.136719 171.527344 88.710938 169.824219 89.523438 Z M 169.824219 89.523438 C 170.097656 89.5 170.378906 89.484375 170.65625 89.476562 C 171.574219 89.460938 172.027344 88.816406 172.574219 88.3125 C 172.761719 88.136719 171.527344 88.710938 169.824219 89.523438 Z M 163.476562 92.558594 C 163.898438 92.476562 164.328125 92.414062 164.757812 92.359375 C 165.574219 92.257812 166.003906 91.765625 166.355469 91.191406 C 165.308594 91.691406 164.296875 92.179688 163.476562 92.558594 Z M 163.476562 92.558594 C 163.898438 92.476562 164.328125 92.414062 164.757812 92.359375 C 165.574219 92.257812 166.003906 91.765625 166.355469 91.191406 C 165.308594 91.691406 164.296875 92.179688 163.476562 92.558594 Z M 169.824219 89.523438 C 170.097656 89.5 170.378906 89.484375 170.65625 89.476562 C 171.574219 89.460938 172.027344 88.816406 172.574219 88.3125 C 172.761719 88.136719 171.527344 88.710938 169.824219 89.523438 Z M 208.914062 169.144531 C 208.679688 169 208.441406 168.863281 208.195312 168.726562 C 207.304688 168.425781 206.460938 167.988281 205.695312 167.394531 C 205.652344 167.363281 205.605469 167.328125 205.5625 167.292969 C 202.921875 165.152344 201.890625 162.085938 198.164062 161.574219 C 196.136719 161.296875 194.046875 161.554688 192.042969 161.132812 C 191.6875 161.058594 191.324219 160.957031 191.035156 160.742188 C 190.601562 160.425781 190.378906 159.914062 190.121094 159.449219 C 189.453125 158.265625 188.4375 157.28125 187.234375 156.648438 C 187.09375 156.570312 186.945312 156.503906 186.792969 156.433594 C 186.296875 156.21875 185.738281 156.0625 185.234375 156.238281 C 184.738281 156.414062 184.410156 156.878906 184.003906 157.207031 C 182.464844 158.453125 180.035156 157.710938 178.339844 158.730469 C 178.011719 158.925781 177.707031 159.191406 177.414062 159.460938 C 176.78125 160.023438 176.175781 160.605469 175.359375 160.621094 C 174.929688 160.628906 174.523438 160.472656 174.125 160.300781 C 174.046875 160.265625 173.964844 160.234375 173.886719 160.199219 C 172.332031 159.542969 170.664062 159.144531 168.976562 159.046875 C 168.730469 159.03125 168.476562 159.023438 168.25 159.117188 C 167.828125 159.289062 167.617188 159.746094 167.367188 160.125 C 166.339844 161.664062 164.410156 162.117188 162.660156 162.847656 C 162.65625 162.847656 162.65625 162.851562 162.652344 162.851562 C 162.03125 163.109375 161.441406 163.402344 160.914062 163.792969 C 160.515625 164.089844 160.144531 164.453125 159.671875 164.617188 C 159.164062 164.796875 158.609375 164.726562 158.078125 164.65625 L 154.765625 164.214844 L 154.761719 164.214844 L 151.574219 163.785156 C 151.960938 164.019531 152.347656 164.257812 152.726562 164.507812 C 155.867188 166.554688 158.699219 169.066406 161.105469 171.941406 C 161.632812 172.566406 162.148438 173.230469 162.386719 174.011719 C 162.570312 174.621094 162.574219 175.265625 162.644531 175.894531 C 162.917969 178.492188 164.230469 180.84375 165.53125 183.109375 C 165.96875 183.875 166.460938 184.683594 167.257812 185.058594 C 167.476562 185.160156 167.71875 185.230469 167.945312 185.304688 C 168.175781 185.378906 168.402344 185.46875 168.59375 185.613281 C 169.125 186.003906 169.292969 186.703125 169.429688 187.351562 C 169.480469 187.605469 169.535156 187.859375 169.589844 188.117188 C 169.832031 189.277344 170.066406 190.4375 170.3125 191.597656 C 187.015625 184.78125 200.6875 177.597656 211.207031 171.320312 C 210.628906 170.40625 209.84375 169.71875 208.914062 169.144531 Z M 169.824219 89.523438 C 170.097656 89.5 170.378906 89.484375 170.65625 89.476562 C 171.574219 89.460938 172.027344 88.816406 172.574219 88.3125 C 172.761719 88.136719 171.527344 88.710938 169.824219 89.523438 Z M 163.476562 92.558594 C 163.898438 92.476562 164.328125 92.414062 164.757812 92.359375 C 165.574219 92.257812 166.003906 91.765625 166.355469 91.191406 C 165.308594 91.691406 164.296875 92.179688 163.476562 92.558594 Z M 163.476562 92.558594 C 163.898438 92.476562 164.328125 92.414062 164.757812 92.359375 C 165.574219 92.257812 166.003906 91.765625 166.355469 91.191406 C 165.308594 91.691406 164.296875 92.179688 163.476562 92.558594 Z M 169.824219 89.523438 C 170.097656 89.5 170.378906 89.484375 170.65625 89.476562 C 171.574219 89.460938 172.027344 88.816406 172.574219 88.3125 C 172.761719 88.136719 171.527344 88.710938 169.824219 89.523438 Z M 208.914062 169.144531 C 208.679688 169 208.441406 168.863281 208.195312 168.726562 C 207.304688 168.425781 206.460938 167.988281 205.695312 167.394531 C 205.652344 167.363281 205.605469 167.328125 205.5625 167.292969 C 202.921875 165.152344 201.890625 162.085938 198.164062 161.574219 C 196.136719 161.296875 194.046875 161.554688 192.042969 161.132812 C 191.6875 161.058594 191.324219 160.957031 191.035156 160.742188 C 190.601562 160.425781 190.378906 159.914062 190.121094 159.449219 C 189.453125 158.265625 188.4375 157.28125 187.234375 156.648438 C 187.09375 156.570312 186.945312 156.503906 186.792969 156.433594 C 186.296875 156.21875 185.738281 156.0625 185.234375 156.238281 C 184.738281 156.414062 184.410156 156.878906 184.003906 157.207031 C 182.464844 158.453125 180.035156 157.710938 178.339844 158.730469 C 178.011719 158.925781 177.707031 159.191406 177.414062 159.460938 C 176.78125 160.023438 176.175781 160.605469 175.359375 160.621094 C 174.929688 160.628906 174.523438 160.472656 174.125 160.300781 C 174.046875 160.265625 173.964844 160.234375 173.886719 160.199219 C 172.332031 159.542969 170.664062 159.144531 168.976562 159.046875 C 168.730469 159.03125 168.476562 159.023438 168.25 159.117188 C 167.828125 159.289062 167.617188 159.746094 167.367188 160.125 C 166.339844 161.664062 164.410156 162.117188 162.660156 162.847656 C 162.65625 162.847656 162.65625 162.851562 162.652344 162.851562 C 162.03125 163.109375 161.441406 163.402344 160.914062 163.792969 C 160.515625 164.089844 160.144531 164.453125 159.671875 164.617188 C 159.164062 164.796875 158.609375 164.726562 158.078125 164.65625 L 154.765625 164.214844 L 154.761719 164.214844 L 151.574219 163.785156 C 151.960938 164.019531 152.347656 164.257812 152.726562 164.507812 C 155.867188 166.554688 158.699219 169.066406 161.105469 171.941406 C 161.632812 172.566406 162.148438 173.230469 162.386719 174.011719 C 162.570312 174.621094 162.574219 175.265625 162.644531 175.894531 C 162.917969 178.492188 164.230469 180.84375 165.53125 183.109375 C 165.96875 183.875 166.460938 184.683594 167.257812 185.058594 C 167.476562 185.160156 167.71875 185.230469 167.945312 185.304688 C 168.175781 185.378906 168.402344 185.46875 168.59375 185.613281 C 169.125 186.003906 169.292969 186.703125 169.429688 187.351562 C 169.480469 187.605469 169.535156 187.859375 169.589844 188.117188 C 169.832031 189.277344 170.066406 190.4375 170.3125 191.597656 C 187.015625 184.78125 200.6875 177.597656 211.207031 171.320312 C 210.628906 170.40625 209.84375 169.71875 208.914062 169.144531 Z M 208.914062 169.144531 C 208.679688 169 208.441406 168.863281 208.195312 168.726562 C 207.304688 168.425781 206.460938 167.988281 205.695312 167.394531 C 205.652344 167.363281 205.605469 167.328125 205.5625 167.292969 C 202.921875 165.152344 201.890625 162.085938 198.164062 161.574219 C 196.136719 161.296875 194.046875 161.554688 192.042969 161.132812 C 191.6875 161.058594 191.324219 160.957031 191.035156 160.742188 C 190.601562 160.425781 190.378906 159.914062 190.121094 159.449219 C 189.453125 158.265625 188.4375 157.28125 187.234375 156.648438 C 187.09375 156.570312 186.945312 156.503906 186.792969 156.433594 C 186.296875 156.21875 185.738281 156.0625 185.234375 156.238281 C 184.738281 156.414062 184.410156 156.878906 184.003906 157.207031 C 182.464844 158.453125 180.035156 157.710938 178.339844 158.730469 C 178.011719 158.925781 177.707031 159.191406 177.414062 159.460938 C 176.78125 160.023438 176.175781 160.605469 175.359375 160.621094 C 174.929688 160.628906 174.523438 160.472656 174.125 160.300781 C 174.046875 160.265625 173.964844 160.234375 173.886719 160.199219 C 172.332031 159.542969 170.664062 159.144531 168.976562 159.046875 C 168.730469 159.03125 168.476562 159.023438 168.25 159.117188 C 167.828125 159.289062 167.617188 159.746094 167.367188 160.125 C 166.339844 161.664062 164.410156 162.117188 162.660156 162.847656 C 162.65625 162.847656 162.65625 162.851562 162.652344 162.851562 C 162.03125 163.109375 161.441406 163.402344 160.914062 163.792969 C 160.515625 164.089844 160.144531 164.453125 159.671875 164.617188 C 159.164062 164.796875 158.609375 164.726562 158.078125 164.65625 L 154.765625 164.214844 L 154.761719 164.214844 L 151.574219 163.785156 C 151.960938 164.019531 152.347656 164.257812 152.726562 164.507812 C 155.867188 166.554688 158.699219 169.066406 161.105469 171.941406 C 161.632812 172.566406 162.148438 173.230469 162.386719 174.011719 C 162.570312 174.621094 162.574219 175.265625 162.644531 175.894531 C 162.917969 178.492188 164.230469 180.84375 165.53125 183.109375 C 165.96875 183.875 166.460938 184.683594 167.257812 185.058594 C 167.476562 185.160156 167.71875 185.230469 167.945312 185.304688 C 168.175781 185.378906 168.402344 185.46875 168.59375 185.613281 C 169.125 186.003906 169.292969 186.703125 169.429688 187.351562 C 169.480469 187.605469 169.535156 187.859375 169.589844 188.117188 C 169.832031 189.277344 170.066406 190.4375 170.3125 191.597656 C 187.015625 184.78125 200.6875 177.597656 211.207031 171.320312 C 210.628906 170.40625 209.84375 169.71875 208.914062 169.144531 Z M 169.824219 89.523438 C 170.097656 89.5 170.378906 89.484375 170.65625 89.476562 C 171.574219 89.460938 172.027344 88.816406 172.574219 88.3125 C 172.761719 88.136719 171.527344 88.710938 169.824219 89.523438 Z M 163.476562 92.558594 C 163.898438 92.476562 164.328125 92.414062 164.757812 92.359375 C 165.574219 92.257812 166.003906 91.765625 166.355469 91.191406 C 165.308594 91.691406 164.296875 92.179688 163.476562 92.558594 Z M 163.476562 92.558594 C 163.898438 92.476562 164.328125 92.414062 164.757812 92.359375 C 165.574219 92.257812 166.003906 91.765625 166.355469 91.191406 C 165.308594 91.691406 164.296875 92.179688 163.476562 92.558594 Z M 169.824219 89.523438 C 170.097656 89.5 170.378906 89.484375 170.65625 89.476562 C 171.574219 89.460938 172.027344 88.816406 172.574219 88.3125 C 172.761719 88.136719 171.527344 88.710938 169.824219 89.523438 Z M 208.914062 169.144531 C 208.679688 169 208.441406 168.863281 208.195312 168.726562 C 207.304688 168.425781 206.460938 167.988281 205.695312 167.394531 C 205.652344 167.363281 205.605469 167.328125 205.5625 167.292969 C 202.921875 165.152344 201.890625 162.085938 198.164062 161.574219 C 196.136719 161.296875 194.046875 161.554688 192.042969 161.132812 C 191.6875 161.058594 191.324219 160.957031 191.035156 160.742188 C 190.601562 160.425781 190.378906 159.914062 190.121094 159.449219 C 189.453125 158.265625 188.4375 157.28125 187.234375 156.648438 C 187.09375 156.570312 186.945312 156.503906 186.792969 156.433594 C 186.296875 156.21875 185.738281 156.0625 185.234375 156.238281 C 184.738281 156.414062 184.410156 156.878906 184.003906 157.207031 C 182.464844 158.453125 180.035156 157.710938 178.339844 158.730469 C 178.011719 158.925781 177.707031 159.191406 177.414062 159.460938 C 176.78125 160.023438 176.175781 160.605469 175.359375 160.621094 C 174.929688 160.628906 174.523438 160.472656 174.125 160.300781 C 174.046875 160.265625 173.964844 160.234375 173.886719 160.199219 C 172.332031 159.542969 170.664062 159.144531 168.976562 159.046875 C 168.730469 159.03125 168.476562 159.023438 168.25 159.117188 C 167.828125 159.289062 167.617188 159.746094 167.367188 160.125 C 166.339844 161.664062 164.410156 162.117188 162.660156 162.847656 C 162.65625 162.847656 162.65625 162.851562 162.652344 162.851562 C 162.03125 163.109375 161.441406 163.402344 160.914062 163.792969 C 160.515625 164.089844 160.144531 164.453125 159.671875 164.617188 C 159.164062 164.796875 158.609375 164.726562 158.078125 164.65625 L 154.765625 164.214844 L 154.761719 164.214844 L 151.574219 163.785156 C 151.960938 164.019531 152.347656 164.257812 152.726562 164.507812 C 155.867188 166.554688 158.699219 169.066406 161.105469 171.941406 C 161.632812 172.566406 162.148438 173.230469 162.386719 174.011719 C 162.570312 174.621094 162.574219 175.265625 162.644531 175.894531 C 162.917969 178.492188 164.230469 180.84375 165.53125 183.109375 C 165.96875 183.875 166.460938 184.683594 167.257812 185.058594 C 167.476562 185.160156 167.71875 185.230469 167.945312 185.304688 C 168.175781 185.378906 168.402344 185.46875 168.59375 185.613281 C 169.125 186.003906 169.292969 186.703125 169.429688 187.351562 C 169.480469 187.605469 169.535156 187.859375 169.589844 188.117188 C 169.832031 189.277344 170.066406 190.4375 170.3125 191.597656 C 187.015625 184.78125 200.6875 177.597656 211.207031 171.320312 C 210.628906 170.40625 209.84375 169.71875 208.914062 169.144531 Z M 208.914062 169.144531 C 208.679688 169 208.441406 168.863281 208.195312 168.726562 C 207.304688 168.425781 206.460938 167.988281 205.695312 167.394531 C 205.652344 167.363281 205.605469 167.328125 205.5625 167.292969 C 202.921875 165.152344 201.890625 162.085938 198.164062 161.574219 C 196.136719 161.296875 194.046875 161.554688 192.042969 161.132812 C 191.6875 161.058594 191.324219 160.957031 191.035156 160.742188 C 190.601562 160.425781 190.378906 159.914062 190.121094 159.449219 C 189.453125 158.265625 188.4375 157.28125 187.234375 156.648438 C 187.09375 156.570312 186.945312 156.503906 186.792969 156.433594 C 186.296875 156.21875 185.738281 156.0625 185.234375 156.238281 C 184.738281 156.414062 184.410156 156.878906 184.003906 157.207031 C 182.464844 158.453125 180.035156 157.710938 178.339844 158.730469 C 178.011719 158.925781 177.707031 159.191406 177.414062 159.460938 C 176.78125 160.023438 176.175781 160.605469 175.359375 160.621094 C 174.929688 160.628906 174.523438 160.472656 174.125 160.300781 C 174.046875 160.265625 173.964844 160.234375 173.886719 160.199219 C 172.332031 159.542969 170.664062 159.144531 168.976562 159.046875 C 168.730469 159.03125 168.476562 159.023438 168.25 159.117188 C 167.828125 159.289062 167.617188 159.746094 167.367188 160.125 C 166.339844 161.664062 164.410156 162.117188 162.660156 162.847656 C 162.65625 162.847656 162.65625 162.851562 162.652344 162.851562 C 162.03125 163.109375 161.441406 163.402344 160.914062 163.792969 C 160.515625 164.089844 160.144531 164.453125 159.671875 164.617188 C 159.164062 164.796875 158.609375 164.726562 158.078125 164.65625 L 154.765625 164.214844 L 154.761719 164.214844 L 151.574219 163.785156 C 151.960938 164.019531 152.347656 164.257812 152.726562 164.507812 C 155.867188 166.554688 158.699219 169.066406 161.105469 171.941406 C 161.632812 172.566406 162.148438 173.230469 162.386719 174.011719 C 162.570312 174.621094 162.574219 175.265625 162.644531 175.894531 C 162.917969 178.492188 164.230469 180.84375 165.53125 183.109375 C 165.96875 183.875 166.460938 184.683594 167.257812 185.058594 C 167.476562 185.160156 167.71875 185.230469 167.945312 185.304688 C 168.175781 185.378906 168.402344 185.46875 168.59375 185.613281 C 169.125 186.003906 169.292969 186.703125 169.429688 187.351562 C 169.480469 187.605469 169.535156 187.859375 169.589844 188.117188 C 169.832031 189.277344 170.066406 190.4375 170.3125 191.597656 C 187.015625 184.78125 200.6875 177.597656 211.207031 171.320312 C 210.628906 170.40625 209.84375 169.71875 208.914062 169.144531 Z M 172.574219 88.3125 C 172.761719 88.136719 171.527344 88.710938 169.824219 89.523438 C 170.097656 89.5 170.378906 89.484375 170.65625 89.476562 C 171.574219 89.460938 172.027344 88.816406 172.574219 88.3125 Z M 166.355469 91.191406 C 165.308594 91.691406 164.296875 92.179688 163.476562 92.558594 C 163.898438 92.476562 164.328125 92.414062 164.757812 92.359375 C 165.574219 92.257812 166.003906 91.765625 166.355469 91.191406 Z M 266.546875 127.289062 C 266.324219 126.640625 266.082031 125.988281 265.835938 125.363281 C 265.605469 124.773438 265.375 124.191406 265.136719 123.613281 C 264.703125 122.554688 264.242188 121.503906 263.765625 120.460938 C 263.378906 119.621094 262.980469 118.792969 262.566406 117.964844 C 262.511719 117.851562 262.457031 117.738281 262.394531 117.625 C 262.070312 116.984375 261.742188 116.351562 261.398438 115.726562 C 261.25 115.4375 261.082031 115.128906 260.882812 114.769531 C 260.066406 113.289062 259.199219 111.835938 258.292969 110.414062 C 251.363281 99.511719 241.996094 90.261719 230.976562 83.613281 C 206.664062 68.53125 176.40625 67.339844 150.042969 80.425781 C 128.339844 91.199219 112.765625 110.03125 106.492188 132.382812 C 105.90625 134.460938 105.402344 136.566406 104.980469 138.703125 C 104.832031 139.457031 104.695312 140.207031 104.566406 140.972656 C 104.234375 142.949219 103.972656 144.945312 103.785156 146.953125 L 103.785156 147 C 103.65625 148.722656 103.574219 150.445312 103.527344 152.136719 C 103.492188 153.371094 103.484375 154.59375 103.5 155.808594 C 103.597656 165.570312 105.078125 174.832031 107.917969 183.398438 C 108.785156 186.023438 109.785156 188.589844 110.910156 191.085938 C 111.507812 192.417969 112.144531 193.726562 112.808594 195.011719 C 113.070312 195.515625 113.335938 196.015625 113.609375 196.511719 C 114.152344 197.5 114.710938 198.476562 115.292969 199.433594 C 115.308594 199.464844 115.328125 199.496094 115.347656 199.53125 C 115.742188 200.175781 116.148438 200.828125 116.566406 201.472656 C 119.699219 206.300781 123.339844 210.738281 127.4375 214.730469 C 128.558594 215.835938 129.714844 216.898438 130.90625 217.929688 C 131.066406 218.066406 131.226562 218.203125 131.386719 218.335938 C 131.902344 218.777344 132.421875 219.210938 132.945312 219.636719 C 133.550781 220.128906 134.164062 220.609375 134.785156 221.078125 C 134.792969 221.085938 134.796875 221.09375 134.804688 221.09375 C 135.089844 221.3125 135.375 221.53125 135.664062 221.742188 C 135.664062 221.742188 135.664062 221.742188 135.671875 221.75 C 139.382812 224.5 143.355469 226.953125 147.570312 229.085938 L 147.574219 229.085938 C 148.542969 229.574219 149.527344 230.054688 150.527344 230.507812 C 152.605469 231.464844 154.734375 232.347656 156.917969 233.148438 C 166.902344 236.824219 177.625 238.683594 188.289062 238.683594 C 194.847656 238.683594 201.386719 237.980469 207.71875 236.558594 C 223.769531 232.953125 237.957031 224.957031 248.746094 213.4375 C 260.824219 200.542969 268.300781 183.898438 270.96875 163.957031 L 270.976562 163.90625 C 272.277344 151.660156 270.742188 138.992188 266.546875 127.289062 Z M 255.390625 194.320312 C 254.355469 196.703125 253.613281 199.214844 251.941406 201.289062 C 250.671875 202.859375 249.449219 204.46875 248.148438 206.019531 C 246.90625 207.511719 245.636719 208.988281 244.292969 210.382812 C 242.847656 211.886719 241.355469 213.347656 239.789062 214.71875 C 237.984375 216.300781 236.125 217.824219 234.210938 219.265625 C 232.640625 220.445312 230.96875 221.488281 229.300781 222.542969 C 227.734375 223.527344 226.15625 224.492188 224.523438 225.359375 C 222.738281 226.300781 220.90625 227.160156 219.0625 227.984375 C 217.246094 228.796875 215.40625 229.558594 213.542969 230.261719 C 212.410156 230.6875 211.222656 230.964844 210.058594 231.300781 C 208.441406 231.753906 206.820312 232.21875 205.199219 232.65625 C 204.101562 232.949219 203.003906 233.269531 201.886719 233.453125 C 199.9375 233.777344 197.976562 234.054688 196.007812 234.257812 C 194.28125 234.433594 192.539062 234.480469 190.800781 234.609375 C 190.582031 234.625 190.367188 234.667969 190.152344 234.71875 C 187.714844 234.769531 185.285156 234.71875 182.871094 234.566406 C 182.871094 234.449219 182.867188 234.378906 182.902344 234.339844 C 184.59375 232.390625 185.394531 229.910156 186.804688 227.804688 C 187.375 226.949219 188.320312 226.230469 189.246094 225.730469 C 191.28125 224.632812 193.425781 223.722656 195.503906 222.710938 C 198.125 221.433594 200.601562 220.011719 202.082031 217.304688 C 202.6875 216.179688 202.824219 215.023438 202.800781 213.835938 C 202.78125 212.988281 202.90625 212.308594 203.648438 211.832031 C 203.699219 211.804688 203.746094 211.765625 203.78125 211.722656 C 204.699219 210.582031 205.6875 210.121094 207.207031 210.800781 C 207.796875 211.0625 208.753906 210.636719 209.5 210.398438 C 210.726562 209.996094 211.945312 209.539062 213.121094 209.007812 C 214.195312 208.507812 215.21875 207.894531 216.246094 207.292969 C 216.46875 207.160156 216.679688 206.882812 216.765625 206.628906 C 217.335938 204.847656 218.605469 203.707031 220.167969 202.820312 C 221.894531 201.832031 222.65625 200.238281 222.746094 198.347656 C 222.792969 197.253906 223.148438 196.621094 224.207031 196.25 C 227.28125 195.164062 229.457031 192.988281 231.132812 190.269531 C 232.089844 188.710938 231.675781 186.140625 230.3125 184.933594 C 229.683594 184.378906 229.09375 183.773438 228.417969 183.28125 C 228.15625 183.097656 227.710938 183.125 227.351562 183.121094 C 225.394531 183.105469 223.433594 183.128906 221.476562 183.105469 C 220.730469 183.097656 220.359375 182.570312 220.207031 181.910156 C 220.09375 181.4375 217.324219 180.867188 217.148438 180.433594 C 210.046875 188.113281 195.585938 200.335938 178.742188 214.773438 C 178.542969 215.554688 177.609375 219.257812 177.414062 220.03125 C 176.59375 223.273438 175.414062 226.441406 175.359375 229.832031 C 175.339844 230.945312 175.722656 232.066406 175.921875 233.183594 C 175.960938 233.394531 176.007812 233.601562 176.066406 233.863281 C 169.386719 232.90625 162.863281 231.179688 156.679688 228.738281 C 155.722656 228.363281 154.773438 227.96875 153.835938 227.558594 C 150.359375 226.039062 147 224.292969 143.785156 222.324219 C 142.898438 221.777344 142.015625 221.214844 141.148438 220.636719 C 139.613281 219.609375 138.113281 218.53125 136.65625 217.40625 C 135.488281 216.503906 134.34375 215.5625 133.226562 214.59375 C 129.863281 211.664062 126.757812 208.453125 123.980469 204.96875 C 122.910156 203.632812 121.886719 202.257812 120.917969 200.839844 C 120.570312 200.339844 120.230469 199.828125 119.894531 199.3125 C 119.5 198.707031 119.113281 198.089844 118.742188 197.476562 C 118.464844 197.015625 118.1875 196.550781 117.917969 196.082031 C 117.242188 194.914062 116.601562 193.726562 115.984375 192.511719 C 114.308594 189.195312 112.867188 185.726562 111.679688 182.152344 C 109.402344 175.269531 108.039062 167.914062 107.617188 160.183594 C 107.53125 158.746094 107.484375 157.300781 107.46875 155.839844 C 107.453125 154.648438 107.460938 153.449219 107.492188 152.242188 C 107.535156 150.621094 107.621094 148.960938 107.734375 147.300781 C 109.257812 131.109375 115.699219 116.179688 125.9375 104.125 C 125.882812 104.359375 125.824219 104.59375 125.75 104.824219 C 125.828125 104.71875 125.910156 104.609375 125.984375 104.503906 C 126.046875 104.410156 126.125 104.324219 126.195312 104.234375 C 126.265625 104.273438 126.335938 104.316406 126.402344 104.355469 C 126.316406 104.675781 126.242188 105.007812 126.132812 105.324219 C 125.199219 107.960938 124.101562 110.558594 123.355469 113.25 C 122.417969 116.628906 121.660156 120.070312 121.015625 123.523438 C 120.511719 126.261719 120.757812 129.058594 121.074219 131.8125 C 121.289062 133.6875 121.625 135.542969 121.957031 137.398438 C 122.074219 138.054688 122.214844 138.765625 123 139.050781 C 123.132812 139.105469 123.191406 139.320312 123.304688 139.441406 C 123.613281 139.785156 123.875 140.273438 124.261719 140.421875 C 125.507812 140.902344 126.097656 141.765625 126.140625 143.066406 C 126.183594 144.269531 126.636719 145.269531 127.621094 146.03125 C 128.058594 146.367188 128.367188 146.882812 128.785156 147.253906 C 129.457031 147.855469 130.097656 148.542969 130.875 148.949219 C 132.5 149.785156 133.757812 151.058594 135.105469 152.222656 C 135.765625 152.796875 136.390625 153.429688 137.101562 153.9375 C 137.847656 154.460938 138.671875 154.867188 139.457031 155.328125 C 140.195312 155.757812 140.929688 156.191406 141.84375 156.726562 C 141.699219 156.726562 141.566406 156.722656 141.429688 156.722656 C 141.542969 156.796875 141.664062 156.867188 141.773438 156.945312 C 143.265625 158.050781 144.203125 159.664062 145.109375 161.28125 C 146.066406 161.300781 147.035156 161.546875 148.011719 161.886719 C 150.269531 162.664062 152.558594 163.910156 154.769531 163.875 C 154.132812 163.367188 153.550781 162.363281 153.082031 161.226562 C 152.414062 159.601562 151.980469 157.710938 151.984375 156.664062 C 151.488281 156.691406 150.984375 156.710938 150.480469 156.730469 C 149.605469 156.765625 148.996094 156.078125 149.335938 155.25 C 150.078125 153.417969 150.648438 151.464844 152.492188 150.300781 C 153.359375 149.753906 153.351562 148.835938 152.613281 148.15625 C 152.386719 147.941406 152.195312 147.6875 152.023438 147.433594 C 151.5 146.664062 151.035156 146.503906 150.265625 147.054688 C 149.699219 147.460938 149.289062 148.070312 148.753906 148.527344 C 148.4375 148.804688 148.046875 149.023438 147.648438 149.167969 C 146.1875 149.699219 144.675781 149.570312 143.164062 149.484375 C 141.914062 149.414062 140.976562 148.808594 140.347656 147.871094 C 139.816406 147.070312 139.511719 146.101562 139.214844 145.167969 C 138.921875 144.246094 138.75 143.285156 138.550781 142.335938 C 138.191406 140.621094 138.964844 139.292969 140.105469 138.121094 C 140.609375 137.601562 141.121094 137.0625 141.71875 136.664062 C 142.066406 136.433594 142.585938 136.457031 143.019531 136.371094 C 143.71875 136.226562 144.488281 136.226562 145.105469 135.914062 C 146.757812 135.082031 148.464844 135.230469 150.214844 135.34375 C 151.023438 135.394531 151.917969 135.226562 152.667969 134.914062 C 153.636719 134.515625 154.503906 133.871094 155.453125 133.308594 C 155.679688 134.027344 155.980469 134.785156 156.164062 135.574219 C 156.488281 136.96875 157.066406 138.257812 158.253906 139.035156 C 159.515625 139.851562 159.796875 141.097656 160.164062 142.335938 C 160.546875 143.617188 161.273438 144.628906 162.390625 145.335938 C 162.816406 145.609375 164.144531 145.152344 164.554688 144.628906 C 165.015625 144.046875 164.972656 143.476562 164.5 142.910156 C 163.421875 141.625 163.046875 140.039062 162.617188 138.464844 C 162.511719 138.058594 162.269531 137.621094 161.957031 137.359375 C 161.417969 136.910156 161.324219 136.421875 161.570312 135.84375 C 161.785156 135.34375 162.097656 134.886719 162.3125 134.390625 C 162.523438 133.902344 162.652344 133.382812 162.84375 132.890625 C 163.003906 132.464844 163.183594 132.046875 163.398438 131.652344 C 164.046875 130.433594 164.722656 129.222656 165.371094 128.003906 C 165.445312 127.878906 165.503906 127.714844 165.476562 127.589844 C 165.246094 126.566406 165.851562 126.292969 166.691406 126.046875 C 168.6875 125.457031 169.898438 123.941406 170.867188 122.210938 C 171.175781 121.648438 171.472656 121.507812 172.132812 121.542969 C 173.023438 121.589844 173.984375 121.515625 174.808594 121.207031 C 176.066406 120.734375 176.25 119.785156 175.507812 118.660156 C 175.417969 118.523438 175.355469 118.367188 175.21875 118.109375 C 176.421875 118.039062 177.519531 117.925781 178.617188 117.929688 C 179.996094 117.9375 181.363281 118.046875 182.734375 118.109375 C 182.820312 118.113281 182.917969 118.113281 182.988281 118.15625 C 184.273438 118.992188 185.589844 118.84375 186.789062 118.0625 C 187.941406 117.320312 188.722656 116.226562 189.148438 114.894531 C 189.597656 113.46875 189.546875 113.089844 188.480469 112.3125 C 188.207031 112.113281 187.75 112.023438 187.402344 112.074219 C 185.847656 112.277344 184.300781 112.746094 182.753906 112.738281 C 181.09375 112.734375 179.363281 112.515625 178.042969 111.277344 C 177.40625 110.683594 177.503906 109.992188 178.273438 109.574219 C 180.058594 108.597656 181.992188 108.085938 184.007812 108.011719 C 187.386719 107.882812 189.851562 105.898438 190.578125 102.601562 C 190.902344 101.125 190.195312 99.667969 189.007812 98.742188 C 187.523438 97.574219 185.710938 97.265625 184.03125 96.640625 C 183.59375 96.476562 182.960938 96.679688 182.476562 96.863281 C 181.984375 97.046875 181.699219 97.132812 181.347656 96.601562 C 180.277344 94.988281 178.820312 93.777344 177.15625 92.8125 C 175.839844 92.042969 174.109375 92.199219 173.121094 93.492188 C 172.21875 94.671875 171.597656 96.085938 171.011719 97.464844 C 170.824219 97.90625 171.230469 98.570312 171.25 99.136719 C 171.269531 99.613281 171.203125 100.132812 171.023438 100.574219 C 170.703125 101.359375 170.265625 102.109375 169.875 102.871094 C 169.425781 103.757812 168.679688 104.050781 167.816406 103.546875 C 167.242188 103.207031 166.777344 102.679688 166.277344 102.222656 C 165.765625 101.742188 165.335938 101.125 164.746094 100.78125 C 164.089844 100.398438 163.332031 100.488281 162.597656 100.839844 C 162.363281 100.953125 161.902344 100.820312 161.652344 100.652344 C 160.429688 99.796875 159.535156 98.652344 159.125 97.214844 C 159.035156 96.921875 159.292969 96.46875 159.503906 96.164062 C 160.164062 95.1875 160.871094 94.238281 161.597656 93.3125 C 161.597656 93.308594 161.605469 93.304688 161.609375 93.292969 C 161.796875 93.0625 162.105469 92.859375 162.390625 92.789062 C 162.390625 92.789062 162.394531 92.789062 162.398438 92.785156 C 163.316406 92.257812 164.925781 91.433594 166.738281 90.550781 C 166.757812 90.523438 166.773438 90.496094 166.789062 90.46875 C 166.941406 90.21875 167.191406 89.902344 167.4375 89.859375 C 167.816406 89.789062 168.195312 89.726562 168.574219 89.671875 C 172.367188 87.890625 176.347656 86.210938 176.664062 86.59375 C 177.3125 87.378906 178.121094 87.503906 179.09375 87.496094 C 179.652344 87.492188 180.246094 87.820312 180.773438 88.101562 C 181.347656 88.398438 181.820312 88.878906 182.570312 88.554688 C 183.382812 88.207031 183.679688 87.640625 183.238281 86.878906 C 182.390625 85.429688 181.5625 83.957031 180.542969 82.640625 C 180.0625 82.015625 179.199219 81.570312 178.421875 81.300781 C 177.167969 80.867188 175.847656 80.5625 174.53125 80.359375 C 172.519531 80.050781 170.609375 80.539062 168.84375 81.492188 C 166.933594 82.515625 166.679688 82.578125 163.640625 81.746094 C 161.433594 81.132812 159.339844 81.492188 157.34375 82.519531 C 155.542969 83.441406 153.84375 84.59375 151.746094 84.769531 C 151.394531 84.796875 151.042969 84.851562 150.691406 84.890625 C 150.675781 84.832031 150.652344 84.765625 150.636719 84.707031 C 150.835938 84.574219 151.023438 84.421875 151.242188 84.316406 C 155.757812 82.195312 160.308594 80.132812 165.148438 78.878906 C 168.601562 77.984375 172.125 77.34375 175.621094 76.59375 C 176.273438 76.453125 176.625 76.628906 176.703125 77.394531 C 176.734375 77.691406 177.207031 78.175781 177.484375 78.183594 C 178.785156 78.203125 180.09375 78.101562 181.398438 78.003906 C 182.144531 77.953125 182.839844 77.804688 183.644531 78.003906 C 184.722656 78.277344 185.914062 78.109375 187.050781 78.105469 C 187.335938 78.105469 187.617188 78.011719 187.90625 77.980469 C 189.457031 77.820312 190.316406 78.542969 190.554688 80.089844 C 190.597656 80.359375 190.964844 80.746094 191.230469 80.785156 C 191.953125 80.878906 192.703125 80.847656 193.4375 80.8125 C 193.957031 80.789062 194.414062 80.71875 194.492188 81.453125 C 194.511719 81.644531 194.816406 81.933594 195.011719 81.957031 C 195.828125 82.046875 196.652344 82.0625 197.46875 82.085938 C 197.773438 82.089844 198.078125 82.035156 198.664062 81.984375 C 197.632812 83.167969 198.898438 83.933594 198.800781 84.898438 C 199.53125 85.125 200.253906 85.476562 201 85.535156 C 201.6875 85.597656 202.394531 85.316406 203.101562 85.230469 C 204.039062 85.113281 204.667969 85.511719 204.847656 86.441406 C 204.996094 87.207031 205.441406 87.515625 206.148438 87.539062 C 208.09375 87.605469 209.960938 87.246094 211.863281 86.78125 C 214.320312 86.183594 216.523438 84.671875 219.179688 84.855469 C 221.015625 84.976562 222.917969 84.796875 224.691406 85.183594 C 226 85.472656 227.160156 86.4375 228.371094 87.128906 C 229.398438 87.714844 230.382812 88.386719 231.433594 88.914062 C 232.03125 89.210938 232.128906 89.515625 231.839844 90.050781 C 231.625 90.453125 231.425781 90.863281 231.214844 91.269531 C 230.527344 92.605469 230.953125 94 232.191406 94.835938 C 232.980469 95.363281 233.664062 96.03125 234.40625 96.621094 C 234.578125 96.757812 234.8125 96.820312 235 96.953125 C 235.457031 97.28125 235.898438 97.628906 236.335938 97.984375 C 236.460938 98.085938 236.539062 98.257812 236.660156 98.375 C 237.820312 99.476562 237.777344 99.457031 237.1875 100.976562 C 236.878906 101.765625 236.625 102.621094 236.589844 103.457031 C 236.535156 104.699219 235.964844 105.5625 235.0625 106.300781 C 233.757812 107.367188 232.382812 108.367188 231.160156 109.511719 C 229.875 110.726562 230.03125 111.742188 231.363281 112.847656 C 232.679688 113.933594 233.929688 115.101562 235.207031 116.234375 C 235.773438 116.738281 236.363281 117.210938 236.925781 117.710938 C 237.050781 117.820312 237.175781 117.933594 237.296875 118.050781 C 237.503906 118.238281 237.703125 118.433594 237.894531 118.636719 C 238.722656 119.507812 239.21875 120.523438 238.78125 121.828125 C 238.40625 122.9375 238.054688 124.042969 237.546875 125.089844 C 237.457031 125.15625 237.367188 125.230469 237.28125 125.304688 C 236.8125 125.699219 236.347656 126.097656 235.875 126.492188 C 235.46875 126.839844 235.054688 127.1875 234.566406 127.402344 C 233.566406 127.839844 232.417969 127.65625 231.332031 127.503906 C 230.074219 127.324219 228.804688 127.195312 227.53125 127.121094 C 227.300781 127.105469 227.054688 127.097656 226.851562 127.210938 C 226.410156 127.453125 226.425781 128.074219 226.273438 128.550781 C 225.847656 129.867188 224.117188 130.101562 222.738281 130.097656 C 222.167969 130.761719 222.785156 131.757812 223.386719 132.398438 C 224.066406 133.125 224.753906 133.859375 225.613281 134.359375 C 226.539062 134.902344 227.609375 135.136719 228.671875 135.320312 C 228.851562 135.351562 229.027344 135.382812 229.203125 135.414062 C 230.589844 135.640625 231.96875 135.871094 233.355469 136.097656 C 233.355469 136.179688 233.355469 136.253906 233.34375 136.332031 C 233.316406 136.773438 233.1875 137.207031 232.957031 137.585938 L 236.851562 140.851562 C 237.113281 141.070312 237.378906 141.289062 237.570312 141.570312 C 238.09375 142.34375 237.9375 143.285156 237.78125 144.242188 C 237.746094 144.460938 237.707031 144.683594 237.679688 144.898438 C 237.640625 145.222656 237.609375 145.539062 237.625 145.851562 C 237.664062 146.59375 237.945312 147.292969 238.253906 147.984375 C 238.367188 148.25 238.492188 148.515625 238.605469 148.78125 C 239.300781 150.421875 239.253906 152.230469 239.871094 153.84375 C 240.449219 155.335938 241.972656 156.992188 243.011719 158.191406 C 243.921875 159.230469 244.921875 160.175781 246.039062 161.042969 C 247.035156 161.8125 248.398438 161.59375 249.179688 162.597656 C 250.664062 162.476562 251.824219 163.351562 253.085938 163.882812 C 253.722656 164.144531 254.238281 164.386719 253.75 165.238281 C 253.410156 165.824219 253.144531 166.480469 253 167.148438 C 252.738281 168.34375 252.832031 169.5 253.5 170.621094 C 254.332031 172.019531 254.371094 173.621094 254.402344 175.203125 C 254.425781 176.746094 254.402344 178.296875 254.410156 179.839844 C 254.410156 180.121094 254.378906 180.480469 254.527344 180.671875 C 255.277344 181.625 254.976562 182.691406 254.933594 183.734375 C 254.820312 186.363281 254.8125 188.980469 255.523438 191.554688 C 255.773438 192.460938 255.800781 193.378906 255.390625 194.320312 Z M 208.914062 169.144531 C 208.679688 169 208.441406 168.863281 208.195312 168.726562 C 207.304688 168.425781 206.460938 167.988281 205.695312 167.394531 C 205.652344 167.363281 205.605469 167.328125 205.5625 167.292969 C 202.921875 165.152344 201.890625 162.085938 198.164062 161.574219 C 196.136719 161.296875 194.046875 161.554688 192.042969 161.132812 C 191.6875 161.058594 191.324219 160.957031 191.035156 160.742188 C 190.601562 160.425781 190.378906 159.914062 190.121094 159.449219 C 189.453125 158.265625 188.4375 157.28125 187.234375 156.648438 C 187.09375 156.570312 186.945312 156.503906 186.792969 156.433594 C 186.296875 156.21875 185.738281 156.0625 185.234375 156.238281 C 184.738281 156.414062 184.410156 156.878906 184.003906 157.207031 C 182.464844 158.453125 180.035156 157.710938 178.339844 158.730469 C 178.011719 158.925781 177.707031 159.191406 177.414062 159.460938 C 176.78125 160.023438 176.175781 160.605469 175.359375 160.621094 C 174.929688 160.628906 174.523438 160.472656 174.125 160.300781 C 174.046875 160.265625 173.964844 160.234375 173.886719 160.199219 C 172.332031 159.542969 170.664062 159.144531 168.976562 159.046875 C 168.730469 159.03125 168.476562 159.023438 168.25 159.117188 C 167.828125 159.289062 167.617188 159.746094 167.367188 160.125 C 166.339844 161.664062 164.410156 162.117188 162.660156 162.847656 C 162.65625 162.847656 162.65625 162.851562 162.652344 162.851562 C 162.03125 163.109375 161.441406 163.402344 160.914062 163.792969 C 160.515625 164.089844 160.144531 164.453125 159.671875 164.617188 C 159.164062 164.796875 158.609375 164.726562 158.078125 164.65625 L 154.765625 164.214844 L 154.761719 164.214844 L 151.574219 163.785156 C 151.960938 164.019531 152.347656 164.257812 152.726562 164.507812 C 155.867188 166.554688 158.699219 169.066406 161.105469 171.941406 C 161.632812 172.566406 162.148438 173.230469 162.386719 174.011719 C 162.570312 174.621094 162.574219 175.265625 162.644531 175.894531 C 162.917969 178.492188 164.230469 180.84375 165.53125 183.109375 C 165.96875 183.875 166.460938 184.683594 167.257812 185.058594 C 167.476562 185.160156 167.71875 185.230469 167.945312 185.304688 C 168.175781 185.378906 168.402344 185.46875 168.59375 185.613281 C 169.125 186.003906 169.292969 186.703125 169.429688 187.351562 C 169.480469 187.605469 169.535156 187.859375 169.589844 188.117188 C 169.832031 189.277344 170.066406 190.4375 170.3125 191.597656 C 187.015625 184.78125 200.6875 177.597656 211.207031 171.320312 C 210.628906 170.40625 209.84375 169.71875 208.914062 169.144531 Z M 169.824219 89.523438 C 170.097656 89.5 170.378906 89.484375 170.65625 89.476562 C 171.574219 89.460938 172.027344 88.816406 172.574219 88.3125 C 172.761719 88.136719 171.527344 88.710938 169.824219 89.523438 Z M 164.757812 92.359375 C 165.574219 92.257812 166.003906 91.765625 166.355469 91.191406 C 165.308594 91.691406 164.296875 92.179688 163.476562 92.558594 C 163.898438 92.476562 164.328125 92.414062 164.757812 92.359375 Z M 163.476562 92.558594 C 163.898438 92.476562 164.328125 92.414062 164.757812 92.359375 C 165.574219 92.257812 166.003906 91.765625 166.355469 91.191406 C 165.308594 91.691406 164.296875 92.179688 163.476562 92.558594 Z M 169.824219 89.523438 C 170.097656 89.5 170.378906 89.484375 170.65625 89.476562 C 171.574219 89.460938 172.027344 88.816406 172.574219 88.3125 C 172.761719 88.136719 171.527344 88.710938 169.824219 89.523438 Z M 208.914062 169.144531 C 208.679688 169 208.441406 168.863281 208.195312 168.726562 C 207.304688 168.425781 206.460938 167.988281 205.695312 167.394531 C 205.652344 167.363281 205.605469 167.328125 205.5625 167.292969 C 202.921875 165.152344 201.890625 162.085938 198.164062 161.574219 C 196.136719 161.296875 194.046875 161.554688 192.042969 161.132812 C 191.6875 161.058594 191.324219 160.957031 191.035156 160.742188 C 190.601562 160.425781 190.378906 159.914062 190.121094 159.449219 C 189.453125 158.265625 188.4375 157.28125 187.234375 156.648438 C 187.09375 156.570312 186.945312 156.503906 186.792969 156.433594 C 186.296875 156.21875 185.738281 156.0625 185.234375 156.238281 C 184.738281 156.414062 184.410156 156.878906 184.003906 157.207031 C 182.464844 158.453125 180.035156 157.710938 178.339844 158.730469 C 178.011719 158.925781 177.707031 159.191406 177.414062 159.460938 C 176.78125 160.023438 176.175781 160.605469 175.359375 160.621094 C 174.929688 160.628906 174.523438 160.472656 174.125 160.300781 C 174.046875 160.265625 173.964844 160.234375 173.886719 160.199219 C 172.332031 159.542969 170.664062 159.144531 168.976562 159.046875 C 168.730469 159.03125 168.476562 159.023438 168.25 159.117188 C 167.828125 159.289062 167.617188 159.746094 167.367188 160.125 C 166.339844 161.664062 164.410156 162.117188 162.660156 162.847656 C 162.65625 162.847656 162.65625 162.851562 162.652344 162.851562 C 162.03125 163.109375 161.441406 163.402344 160.914062 163.792969 C 160.515625 164.089844 160.144531 164.453125 159.671875 164.617188 C 159.164062 164.796875 158.609375 164.726562 158.078125 164.65625 L 154.765625 164.214844 L 154.761719 164.214844 L 151.574219 163.785156 C 151.960938 164.019531 152.347656 164.257812 152.726562 164.507812 C 155.867188 166.554688 158.699219 169.066406 161.105469 171.941406 C 161.632812 172.566406 162.148438 173.230469 162.386719 174.011719 C 162.570312 174.621094 162.574219 175.265625 162.644531 175.894531 C 162.917969 178.492188 164.230469 180.84375 165.53125 183.109375 C 165.96875 183.875 166.460938 184.683594 167.257812 185.058594 C 167.476562 185.160156 167.71875 185.230469 167.945312 185.304688 C 168.175781 185.378906 168.402344 185.46875 168.59375 185.613281 C 169.125 186.003906 169.292969 186.703125 169.429688 187.351562 C 169.480469 187.605469 169.535156 187.859375 169.589844 188.117188 C 169.832031 189.277344 170.066406 190.4375 170.3125 191.597656 C 187.015625 184.78125 200.6875 177.597656 211.207031 171.320312 C 210.628906 170.40625 209.84375 169.71875 208.914062 169.144531 Z M 208.914062 169.144531 C 208.679688 169 208.441406 168.863281 208.195312 168.726562 C 207.304688 168.425781 206.460938 167.988281 205.695312 167.394531 C 205.652344 167.363281 205.605469 167.328125 205.5625 167.292969 C 202.921875 165.152344 201.890625 162.085938 198.164062 161.574219 C 196.136719 161.296875 194.046875 161.554688 192.042969 161.132812 C 191.6875 161.058594 191.324219 160.957031 191.035156 160.742188 C 190.601562 160.425781 190.378906 159.914062 190.121094 159.449219 C 189.453125 158.265625 188.4375 157.28125 187.234375 156.648438 C 187.09375 156.570312 186.945312 156.503906 186.792969 156.433594 C 186.296875 156.21875 185.738281 156.0625 185.234375 156.238281 C 184.738281 156.414062 184.410156 156.878906 184.003906 157.207031 C 182.464844 158.453125 180.035156 157.710938 178.339844 158.730469 C 178.011719 158.925781 177.707031 159.191406 177.414062 159.460938 C 176.78125 160.023438 176.175781 160.605469 175.359375 160.621094 C 174.929688 160.628906 174.523438 160.472656 174.125 160.300781 C 174.046875 160.265625 173.964844 160.234375 173.886719 160.199219 C 172.332031 159.542969 170.664062 159.144531 168.976562 159.046875 C 168.730469 159.03125 168.476562 159.023438 168.25 159.117188 C 167.828125 159.289062 167.617188 159.746094 167.367188 160.125 C 166.339844 161.664062 164.410156 162.117188 162.660156 162.847656 C 162.65625 162.847656 162.65625 162.851562 162.652344 162.851562 C 162.03125 163.109375 161.441406 163.402344 160.914062 163.792969 C 160.515625 164.089844 160.144531 164.453125 159.671875 164.617188 C 159.164062 164.796875 158.609375 164.726562 158.078125 164.65625 L 154.765625 164.214844 L 154.761719 164.214844 L 151.574219 163.785156 C 151.960938 164.019531 152.347656 164.257812 152.726562 164.507812 C 155.867188 166.554688 158.699219 169.066406 161.105469 171.941406 C 161.632812 172.566406 162.148438 173.230469 162.386719 174.011719 C 162.570312 174.621094 162.574219 175.265625 162.644531 175.894531 C 162.917969 178.492188 164.230469 180.84375 165.53125 183.109375 C 165.96875 183.875 166.460938 184.683594 167.257812 185.058594 C 167.476562 185.160156 167.71875 185.230469 167.945312 185.304688 C 168.175781 185.378906 168.402344 185.46875 168.59375 185.613281 C 169.125 186.003906 169.292969 186.703125 169.429688 187.351562 C 169.480469 187.605469 169.535156 187.859375 169.589844 188.117188 C 169.832031 189.277344 170.066406 190.4375 170.3125 191.597656 C 187.015625 184.78125 200.6875 177.597656 211.207031 171.320312 C 210.628906 170.40625 209.84375 169.71875 208.914062 169.144531 Z M 169.824219 89.523438 C 170.097656 89.5 170.378906 89.484375 170.65625 89.476562 C 171.574219 89.460938 172.027344 88.816406 172.574219 88.3125 C 172.761719 88.136719 171.527344 88.710938 169.824219 89.523438 Z M 163.476562 92.558594 C 163.898438 92.476562 164.328125 92.414062 164.757812 92.359375 C 165.574219 92.257812 166.003906 91.765625 166.355469 91.191406 C 165.308594 91.691406 164.296875 92.179688 163.476562 92.558594 Z M 163.476562 92.558594 C 163.898438 92.476562 164.328125 92.414062 164.757812 92.359375 C 165.574219 92.257812 166.003906 91.765625 166.355469 91.191406 C 165.308594 91.691406 164.296875 92.179688 163.476562 92.558594 Z M 169.824219 89.523438 C 170.097656 89.5 170.378906 89.484375 170.65625 89.476562 C 171.574219 89.460938 172.027344 88.816406 172.574219 88.3125 C 172.761719 88.136719 171.527344 88.710938 169.824219 89.523438 Z M 208.914062 169.144531 C 208.679688 169 208.441406 168.863281 208.195312 168.726562 C 207.304688 168.425781 206.460938 167.988281 205.695312 167.394531 C 205.652344 167.363281 205.605469 167.328125 205.5625 167.292969 C 202.921875 165.152344 201.890625 162.085938 198.164062 161.574219 C 196.136719 161.296875 194.046875 161.554688 192.042969 161.132812 C 191.6875 161.058594 191.324219 160.957031 191.035156 160.742188 C 190.601562 160.425781 190.378906 159.914062 190.121094 159.449219 C 189.453125 158.265625 188.4375 157.28125 187.234375 156.648438 C 187.09375 156.570312 186.945312 156.503906 186.792969 156.433594 C 186.296875 156.21875 185.738281 156.0625 185.234375 156.238281 C 184.738281 156.414062 184.410156 156.878906 184.003906 157.207031 C 182.464844 158.453125 180.035156 157.710938 178.339844 158.730469 C 178.011719 158.925781 177.707031 159.191406 177.414062 159.460938 C 176.78125 160.023438 176.175781 160.605469 175.359375 160.621094 C 174.929688 160.628906 174.523438 160.472656 174.125 160.300781 C 174.046875 160.265625 173.964844 160.234375 173.886719 160.199219 C 172.332031 159.542969 170.664062 159.144531 168.976562 159.046875 C 168.730469 159.03125 168.476562 159.023438 168.25 159.117188 C 167.828125 159.289062 167.617188 159.746094 167.367188 160.125 C 166.339844 161.664062 164.410156 162.117188 162.660156 162.847656 C 162.65625 162.847656 162.65625 162.851562 162.652344 162.851562 C 162.03125 163.109375 161.441406 163.402344 160.914062 163.792969 C 160.515625 164.089844 160.144531 164.453125 159.671875 164.617188 C 159.164062 164.796875 158.609375 164.726562 158.078125 164.65625 L 154.765625 164.214844 L 154.761719 164.214844 L 151.574219 163.785156 C 151.960938 164.019531 152.347656 164.257812 152.726562 164.507812 C 155.867188 166.554688 158.699219 169.066406 161.105469 171.941406 C 161.632812 172.566406 162.148438 173.230469 162.386719 174.011719 C 162.570312 174.621094 162.574219 175.265625 162.644531 175.894531 C 162.917969 178.492188 164.230469 180.84375 165.53125 183.109375 C 165.96875 183.875 166.460938 184.683594 167.257812 185.058594 C 167.476562 185.160156 167.71875 185.230469 167.945312 185.304688 C 168.175781 185.378906 168.402344 185.46875 168.59375 185.613281 C 169.125 186.003906 169.292969 186.703125 169.429688 187.351562 C 169.480469 187.605469 169.535156 187.859375 169.589844 188.117188 C 169.832031 189.277344 170.066406 190.4375 170.3125 191.597656 C 187.015625 184.78125 200.6875 177.597656 211.207031 171.320312 C 210.628906 170.40625 209.84375 169.71875 208.914062 169.144531 Z M 178.414062 198.789062 C 178.175781 199.90625 177.296875 205.097656 177.378906 206.230469 C 195.746094 195.878906 209.332031 184.34375 215.902344 178.28125 C 215.902344 176.824219 214.660156 175.226562 214.660156 175.226562 C 214.660156 175.226562 190.726562 192.226562 178.414062 198.789062 Z M 208.914062 169.144531 C 208.679688 169 208.441406 168.863281 208.195312 168.726562 C 207.304688 168.425781 206.460938 167.988281 205.695312 167.394531 C 205.652344 167.363281 205.605469 167.328125 205.5625 167.292969 C 202.921875 165.152344 201.890625 162.085938 198.164062 161.574219 C 196.136719 161.296875 194.046875 161.554688 192.042969 161.132812 C 191.6875 161.058594 191.324219 160.957031 191.035156 160.742188 C 190.601562 160.425781 190.378906 159.914062 190.121094 159.449219 C 189.453125 158.265625 188.4375 157.28125 187.234375 156.648438 C 187.09375 156.570312 186.945312 156.503906 186.792969 156.433594 C 186.296875 156.21875 185.738281 156.0625 185.234375 156.238281 C 184.738281 156.414062 184.410156 156.878906 184.003906 157.207031 C 182.464844 158.453125 180.035156 157.710938 178.339844 158.730469 C 178.011719 158.925781 177.707031 159.191406 177.414062 159.460938 C 176.78125 160.023438 176.175781 160.605469 175.359375 160.621094 C 174.929688 160.628906 174.523438 160.472656 174.125 160.300781 C 174.046875 160.265625 173.964844 160.234375 173.886719 160.199219 C 172.332031 159.542969 170.664062 159.144531 168.976562 159.046875 C 168.730469 159.03125 168.476562 159.023438 168.25 159.117188 C 167.828125 159.289062 167.617188 159.746094 167.367188 160.125 C 166.339844 161.664062 164.410156 162.117188 162.660156 162.847656 C 162.65625 162.847656 162.65625 162.851562 162.652344 162.851562 C 162.03125 163.109375 161.441406 163.402344 160.914062 163.792969 C 160.515625 164.089844 160.144531 164.453125 159.671875 164.617188 C 159.164062 164.796875 158.609375 164.726562 158.078125 164.65625 L 154.765625 164.214844 L 154.761719 164.214844 L 151.574219 163.785156 C 151.960938 164.019531 152.347656 164.257812 152.726562 164.507812 C 155.867188 166.554688 158.699219 169.066406 161.105469 171.941406 C 161.632812 172.566406 162.148438 173.230469 162.386719 174.011719 C 162.570312 174.621094 162.574219 175.265625 162.644531 175.894531 C 162.917969 178.492188 164.230469 180.84375 165.53125 183.109375 C 165.96875 183.875 166.460938 184.683594 167.257812 185.058594 C 167.476562 185.160156 167.71875 185.230469 167.945312 185.304688 C 168.175781 185.378906 168.402344 185.46875 168.59375 185.613281 C 169.125 186.003906 169.292969 186.703125 169.429688 187.351562 C 169.480469 187.605469 169.535156 187.859375 169.589844 188.117188 C 169.832031 189.277344 170.066406 190.4375 170.3125 191.597656 C 187.015625 184.78125 200.6875 177.597656 211.207031 171.320312 C 210.628906 170.40625 209.84375 169.71875 208.914062 169.144531 Z M 169.824219 89.523438 C 170.097656 89.5 170.378906 89.484375 170.65625 89.476562 C 171.574219 89.460938 172.027344 88.816406 172.574219 88.3125 C 172.761719 88.136719 171.527344 88.710938 169.824219 89.523438 Z M 163.476562 92.558594 C 163.898438 92.476562 164.328125 92.414062 164.757812 92.359375 C 165.574219 92.257812 166.003906 91.765625 166.355469 91.191406 C 165.308594 91.691406 164.296875 92.179688 163.476562 92.558594 Z M 163.476562 92.558594 C 163.898438 92.476562 164.328125 92.414062 164.757812 92.359375 C 165.574219 92.257812 166.003906 91.765625 166.355469 91.191406 C 165.308594 91.691406 164.296875 92.179688 163.476562 92.558594 Z M 169.824219 89.523438 C 170.097656 89.5 170.378906 89.484375 170.65625 89.476562 C 171.574219 89.460938 172.027344 88.816406 172.574219 88.3125 C 172.761719 88.136719 171.527344 88.710938 169.824219 89.523438 Z M 208.914062 169.144531 C 208.679688 169 208.441406 168.863281 208.195312 168.726562 C 207.304688 168.425781 206.460938 167.988281 205.695312 167.394531 C 205.652344 167.363281 205.605469 167.328125 205.5625 167.292969 C 202.921875 165.152344 201.890625 162.085938 198.164062 161.574219 C 196.136719 161.296875 194.046875 161.554688 192.042969 161.132812 C 191.6875 161.058594 191.324219 160.957031 191.035156 160.742188 C 190.601562 160.425781 190.378906 159.914062 190.121094 159.449219 C 189.453125 158.265625 188.4375 157.28125 187.234375 156.648438 C 187.09375 156.570312 186.945312 156.503906 186.792969 156.433594 C 186.296875 156.21875 185.738281 156.0625 185.234375 156.238281 C 184.738281 156.414062 184.410156 156.878906 184.003906 157.207031 C 182.464844 158.453125 180.035156 157.710938 178.339844 158.730469 C 178.011719 158.925781 177.707031 159.191406 177.414062 159.460938 C 176.78125 160.023438 176.175781 160.605469 175.359375 160.621094 C 174.929688 160.628906 174.523438 160.472656 174.125 160.300781 C 174.046875 160.265625 173.964844 160.234375 173.886719 160.199219 C 172.332031 159.542969 170.664062 159.144531 168.976562 159.046875 C 168.730469 159.03125 168.476562 159.023438 168.25 159.117188 C 167.828125 159.289062 167.617188 159.746094 167.367188 160.125 C 166.339844 161.664062 164.410156 162.117188 162.660156 162.847656 C 162.65625 162.847656 162.65625 162.851562 162.652344 162.851562 C 162.03125 163.109375 161.441406 163.402344 160.914062 163.792969 C 160.515625 164.089844 160.144531 164.453125 159.671875 164.617188 C 159.164062 164.796875 158.609375 164.726562 158.078125 164.65625 L 154.765625 164.214844 L 154.761719 164.214844 L 151.574219 163.785156 C 151.960938 164.019531 152.347656 164.257812 152.726562 164.507812 C 155.867188 166.554688 158.699219 169.066406 161.105469 171.941406 C 161.632812 172.566406 162.148438 173.230469 162.386719 174.011719 C 162.570312 174.621094 162.574219 175.265625 162.644531 175.894531 C 162.917969 178.492188 164.230469 180.84375 165.53125 183.109375 C 165.96875 183.875 166.460938 184.683594 167.257812 185.058594 C 167.476562 185.160156 167.71875 185.230469 167.945312 185.304688 C 168.175781 185.378906 168.402344 185.46875 168.59375 185.613281 C 169.125 186.003906 169.292969 186.703125 169.429688 187.351562 C 169.480469 187.605469 169.535156 187.859375 169.589844 188.117188 C 169.832031 189.277344 170.066406 190.4375 170.3125 191.597656 C 187.015625 184.78125 200.6875 177.597656 211.207031 171.320312 C 210.628906 170.40625 209.84375 169.71875 208.914062 169.144531 Z M 169.824219 89.523438 C 170.097656 89.5 170.378906 89.484375 170.65625 89.476562 C 171.574219 89.460938 172.027344 88.816406 172.574219 88.3125 C 172.761719 88.136719 171.527344 88.710938 169.824219 89.523438 Z M 163.476562 92.558594 C 163.898438 92.476562 164.328125 92.414062 164.757812 92.359375 C 165.574219 92.257812 166.003906 91.765625 166.355469 91.191406 C 165.308594 91.691406 164.296875 92.179688 163.476562 92.558594 Z M 163.476562 92.558594 C 163.898438 92.476562 164.328125 92.414062 164.757812 92.359375 C 165.574219 92.257812 166.003906 91.765625 166.355469 91.191406 C 165.308594 91.691406 164.296875 92.179688 163.476562 92.558594 Z M 169.824219 89.523438 C 170.097656 89.5 170.378906 89.484375 170.65625 89.476562 C 171.574219 89.460938 172.027344 88.816406 172.574219 88.3125 C 172.761719 88.136719 171.527344 88.710938 169.824219 89.523438 Z M 169.824219 89.523438 C 170.097656 89.5 170.378906 89.484375 170.65625 89.476562 C 171.574219 89.460938 172.027344 88.816406 172.574219 88.3125 C 172.761719 88.136719 171.527344 88.710938 169.824219 89.523438 Z M 163.476562 92.558594 C 163.898438 92.476562 164.328125 92.414062 164.757812 92.359375 C 165.574219 92.257812 166.003906 91.765625 166.355469 91.191406 C 165.308594 91.691406 164.296875 92.179688 163.476562 92.558594 Z M 163.476562 92.558594 " fill-opacity="1" fill-rule="nonzero"/><path fill="#1c61ad" d="M 263.410156 120.824219 C 240.558594 142.816406 205.972656 177.949219 169.589844 188.109375 C 148.070312 195.109375 131.777344 199.230469 112.808594 195.011719 C 84.523438 186.773438 86.496094 150.382812 106.640625 131.847656 L 105.476562 139.054688 C 105.398438 139.382812 103.886719 144.769531 107.492188 152.238281 C 113.398438 164.464844 199.566406 163.53125 262.289062 116.726562 C 259.671875 118.679688 262.160156 117.78125 263.40625 120.820312 Z M 263.410156 120.824219 " fill-opacity="1" fill-rule="nonzero"/><path fill="#ffffff" d="M 105.472656 139.394531 C 102.179688 144.804688 101.109375 149.828125 102.695312 154.101562 C 108.890625 170.789062 152.800781 168.335938 201.847656 151.691406 C 227.089844 143.125 249.289062 128.429688 262.53125 118.488281 C 270.5 112.503906 275.222656 108.242188 275.410156 108.070312 C 275.414062 108.0625 275.417969 108.0625 275.417969 108.0625 L 275.410156 108.070312 C 275.207031 108.308594 270.839844 113.351562 263.40625 120.824219 C 260.34375 123.898438 256.761719 127.386719 252.734375 131.121094 C 236.054688 146.59375 211.738281 166.28125 185.1875 178.375 C 150.996094 193.949219 109.160156 201.730469 98.710938 180.714844 C 92.511719 168.25 93.464844 153.195312 105.636719 137.863281 Z M 105.472656 139.394531 " fill-opacity="1" fill-rule="nonzero"/><g clip-path="url(#052c30162a)"><path fill="#1c61ad" d="M 253.632812 124.664062 C 253.632812 124.664062 286.207031 103.136719 300.554688 83.585938 C 301.292969 82.578125 300.621094 81.121094 299.382812 80.960938 C 289.671875 79.671875 281.070312 87.621094 275.699219 92.851562 C 269.863281 98.527344 253.511719 114.976562 253.511719 114.976562 L 241.035156 113.800781 L 237.75 117.195312 L 240.011719 117.605469 L 253.636719 124.667969 Z M 253.632812 124.664062 " fill-opacity="1" fill-rule="nonzero"/></g><path fill="#1c61ad" d="M 275.0625 93.710938 C 274.800781 94.5 255.597656 84.308594 239.140625 79.308594 C 237.910156 78.933594 237.175781 80.691406 238.246094 81.398438 C 246.335938 86.746094 257.457031 93.171875 262.832031 103.289062 L 270.140625 98.570312 L 275.0625 93.707031 Z M 275.0625 93.710938 " fill-opacity="1" fill-rule="nonzero"/><path fill="#1c61ad" d="M 259.921875 80.804688 C 260.027344 80.917969 260.105469 81.0625 260.15625 81.226562 C 260.203125 81.394531 260.222656 81.585938 260.210938 81.796875 C 260.195312 82.011719 260.152344 82.242188 260.078125 82.496094 C 260.003906 82.746094 259.898438 83.011719 259.765625 83.289062 C 259.632812 83.570312 259.476562 83.855469 259.289062 84.152344 C 259.101562 84.449219 258.894531 84.75 258.660156 85.050781 C 258.429688 85.355469 258.179688 85.652344 257.910156 85.953125 C 257.640625 86.25 257.355469 86.535156 257.058594 86.816406 C 256.761719 87.097656 256.460938 87.363281 256.148438 87.617188 C 255.835938 87.867188 255.523438 88.101562 255.207031 88.316406 C 254.890625 88.53125 254.582031 88.722656 254.273438 88.890625 C 253.964844 89.0625 253.671875 89.203125 253.382812 89.320312 C 253.097656 89.4375 252.828125 89.527344 252.570312 89.585938 C 252.316406 89.648438 252.082031 89.679688 251.871094 89.679688 C 251.65625 89.679688 251.464844 89.652344 251.300781 89.59375 C 251.136719 89.535156 251 89.449219 250.894531 89.335938 C 250.785156 89.21875 250.707031 89.078125 250.65625 88.914062 C 250.609375 88.746094 250.589844 88.554688 250.605469 88.34375 C 250.617188 88.128906 250.660156 87.898438 250.734375 87.644531 C 250.808594 87.394531 250.914062 87.128906 251.046875 86.851562 C 251.179688 86.570312 251.339844 86.285156 251.523438 85.988281 C 251.710938 85.691406 251.921875 85.390625 252.152344 85.089844 C 252.382812 84.785156 252.636719 84.484375 252.90625 84.1875 C 253.175781 83.890625 253.457031 83.601562 253.753906 83.324219 C 254.050781 83.042969 254.355469 82.777344 254.664062 82.523438 C 254.976562 82.273438 255.292969 82.039062 255.605469 81.824219 C 255.921875 81.609375 256.234375 81.417969 256.539062 81.25 C 256.847656 81.078125 257.144531 80.9375 257.429688 80.820312 C 257.714844 80.703125 257.984375 80.613281 258.242188 80.554688 C 258.496094 80.492188 258.730469 80.460938 258.945312 80.460938 C 259.15625 80.460938 259.347656 80.488281 259.511719 80.546875 C 259.675781 80.605469 259.8125 80.691406 259.921875 80.804688 Z M 259.921875 80.804688 " fill-opacity="1" fill-rule="nonzero"/><path fill="#1c61ad" d="M 270.558594 85.96875 C 270.6875 86.105469 270.78125 86.273438 270.839844 86.476562 C 270.898438 86.675781 270.921875 86.90625 270.90625 87.164062 C 270.890625 87.417969 270.835938 87.699219 270.746094 88 C 270.65625 88.304688 270.53125 88.625 270.371094 88.960938 C 270.210938 89.296875 270.019531 89.640625 269.796875 90 C 269.570312 90.355469 269.320312 90.71875 269.039062 91.082031 C 268.757812 91.445312 268.457031 91.808594 268.132812 92.167969 C 267.808594 92.523438 267.46875 92.871094 267.109375 93.210938 C 266.753906 93.546875 266.386719 93.867188 266.011719 94.171875 C 265.636719 94.476562 265.257812 94.757812 264.878906 95.015625 C 264.496094 95.273438 264.121094 95.507812 263.753906 95.710938 C 263.382812 95.914062 263.027344 96.085938 262.679688 96.226562 C 262.335938 96.367188 262.011719 96.476562 261.703125 96.546875 C 261.398438 96.621094 261.113281 96.65625 260.855469 96.660156 C 260.597656 96.660156 260.371094 96.625 260.175781 96.558594 C 259.976562 96.488281 259.8125 96.382812 259.679688 96.246094 C 259.550781 96.105469 259.457031 95.9375 259.398438 95.734375 C 259.339844 95.535156 259.316406 95.304688 259.332031 95.050781 C 259.347656 94.792969 259.402344 94.511719 259.492188 94.210938 C 259.582031 93.910156 259.707031 93.589844 259.867188 93.253906 C 260.027344 92.917969 260.21875 92.570312 260.445312 92.210938 C 260.667969 91.855469 260.917969 91.496094 261.199219 91.128906 C 261.480469 90.765625 261.78125 90.402344 262.105469 90.046875 C 262.429688 89.6875 262.773438 89.339844 263.128906 89.003906 C 263.488281 88.664062 263.851562 88.34375 264.230469 88.039062 C 264.605469 87.738281 264.980469 87.457031 265.363281 87.195312 C 265.742188 86.9375 266.117188 86.707031 266.484375 86.503906 C 266.855469 86.296875 267.210938 86.125 267.558594 85.984375 C 267.902344 85.84375 268.230469 85.738281 268.535156 85.664062 C 268.84375 85.59375 269.125 85.554688 269.382812 85.554688 C 269.640625 85.550781 269.867188 85.585938 270.066406 85.65625 C 270.261719 85.726562 270.425781 85.828125 270.558594 85.96875 Z M 270.558594 85.96875 " fill-opacity="1" fill-rule="nonzero"/><path fill="#1c61ad" d="M 283.054688 104.773438 C 283.054688 104.773438 283.679688 126.078125 279.617188 139.847656 C 279.355469 140.71875 278.09375 140.636719 277.964844 139.734375 C 276.816406 131.847656 277.136719 121.726562 271.976562 113.972656 L 283.054688 104.777344 Z M 283.054688 104.773438 " fill-opacity="1" fill-rule="nonzero"/><path fill="#1c61ad" d="M 287.9375 120.792969 C 287.988281 120.914062 288.011719 121.050781 288 121.195312 C 287.988281 121.339844 287.949219 121.496094 287.875 121.660156 C 287.800781 121.824219 287.699219 121.996094 287.566406 122.171875 C 287.433594 122.351562 287.277344 122.527344 287.089844 122.710938 C 286.902344 122.890625 286.691406 123.074219 286.457031 123.253906 C 286.222656 123.433594 285.972656 123.609375 285.699219 123.78125 C 285.425781 123.953125 285.140625 124.113281 284.839844 124.269531 C 284.539062 124.425781 284.234375 124.570312 283.917969 124.707031 C 283.601562 124.839844 283.28125 124.964844 282.960938 125.070312 C 282.640625 125.179688 282.324219 125.273438 282.011719 125.351562 C 281.703125 125.429688 281.398438 125.488281 281.109375 125.53125 C 280.816406 125.578125 280.539062 125.601562 280.277344 125.613281 C 280.019531 125.621094 279.777344 125.613281 279.558594 125.585938 C 279.339844 125.558594 279.144531 125.511719 278.976562 125.453125 C 278.808594 125.390625 278.667969 125.3125 278.554688 125.21875 C 278.441406 125.125 278.359375 125.015625 278.304688 124.894531 C 278.253906 124.773438 278.234375 124.636719 278.242188 124.492188 C 278.253906 124.347656 278.296875 124.191406 278.367188 124.027344 C 278.441406 123.863281 278.542969 123.691406 278.675781 123.515625 C 278.808594 123.335938 278.96875 123.160156 279.15625 122.976562 C 279.339844 122.796875 279.550781 122.613281 279.785156 122.433594 C 280.019531 122.253906 280.273438 122.078125 280.542969 121.90625 C 280.816406 121.738281 281.101562 121.574219 281.402344 121.417969 C 281.703125 121.261719 282.011719 121.117188 282.328125 120.980469 C 282.644531 120.847656 282.960938 120.722656 283.28125 120.617188 C 283.601562 120.507812 283.917969 120.414062 284.230469 120.335938 C 284.542969 120.261719 284.84375 120.199219 285.136719 120.15625 C 285.429688 120.109375 285.703125 120.085938 285.964844 120.074219 C 286.226562 120.066406 286.464844 120.078125 286.683594 120.101562 C 286.902344 120.128906 287.097656 120.175781 287.265625 120.234375 C 287.433594 120.296875 287.578125 120.375 287.691406 120.46875 C 287.800781 120.5625 287.886719 120.671875 287.9375 120.792969 Z M 287.9375 120.792969 " fill-opacity="1" fill-rule="nonzero"/><path fill="#1c61ad" d="M 287.519531 110.847656 C 287.582031 110.996094 287.609375 111.15625 287.597656 111.335938 C 287.582031 111.511719 287.535156 111.699219 287.445312 111.894531 C 287.359375 112.09375 287.234375 112.300781 287.074219 112.511719 C 286.917969 112.726562 286.722656 112.941406 286.5 113.160156 C 286.273438 113.378906 286.023438 113.597656 285.738281 113.8125 C 285.457031 114.03125 285.152344 114.242188 284.824219 114.449219 C 284.5 114.652344 284.152344 114.851562 283.792969 115.039062 C 283.429688 115.226562 283.0625 115.402344 282.679688 115.5625 C 282.300781 115.726562 281.914062 115.871094 281.53125 116.003906 C 281.144531 116.132812 280.761719 116.246094 280.386719 116.339844 C 280.011719 116.433594 279.648438 116.503906 279.296875 116.558594 C 278.945312 116.609375 278.613281 116.644531 278.300781 116.652344 C 277.984375 116.664062 277.695312 116.652344 277.433594 116.621094 C 277.167969 116.589844 276.933594 116.535156 276.730469 116.460938 C 276.527344 116.386719 276.359375 116.292969 276.222656 116.179688 C 276.085938 116.066406 275.984375 115.9375 275.921875 115.789062 C 275.859375 115.640625 275.835938 115.480469 275.847656 115.304688 C 275.859375 115.128906 275.910156 114.941406 276 114.742188 C 276.085938 114.542969 276.210938 114.339844 276.367188 114.125 C 276.527344 113.914062 276.71875 113.699219 276.945312 113.480469 C 277.167969 113.261719 277.421875 113.042969 277.703125 112.824219 C 277.984375 112.609375 278.289062 112.398438 278.617188 112.191406 C 278.945312 111.984375 279.289062 111.789062 279.652344 111.601562 C 280.011719 111.410156 280.382812 111.238281 280.765625 111.074219 C 281.144531 110.914062 281.527344 110.765625 281.914062 110.636719 C 282.300781 110.503906 282.679688 110.394531 283.054688 110.300781 C 283.433594 110.207031 283.796875 110.132812 284.148438 110.082031 C 284.5 110.027344 284.832031 109.996094 285.144531 109.984375 C 285.460938 109.976562 285.746094 109.984375 286.011719 110.019531 C 286.277344 110.050781 286.507812 110.105469 286.714844 110.179688 C 286.917969 110.253906 287.085938 110.34375 287.222656 110.457031 C 287.359375 110.570312 287.457031 110.703125 287.519531 110.847656 Z M 287.519531 110.847656 " fill-opacity="1" fill-rule="nonzero"/><path fill="#63cbf7" d="M 285.683594 188.921875 L 284.175781 188.402344 C 287.890625 177.65625 289.769531 166.390625 289.769531 154.914062 C 289.769531 147.039062 288.871094 139.1875 287.105469 131.589844 L 288.660156 131.226562 C 290.457031 138.945312 291.367188 146.914062 291.367188 154.914062 C 291.367188 166.566406 289.453125 178.007812 285.683594 188.921875 Z M 285.683594 188.921875 " fill-opacity="1" fill-rule="nonzero"/><g clip-path="url(#df6ff20b16)"><path fill="#63cbf7" d="M 153.523438 253.546875 C 111.265625 239.179688 82.878906 199.542969 82.878906 154.914062 C 82.878906 143.617188 84.679688 132.515625 88.222656 121.902344 L 89.734375 122.40625 C 86.242188 132.855469 84.472656 143.792969 84.472656 154.914062 C 84.472656 198.859375 112.421875 237.890625 154.03125 252.042969 L 153.519531 253.550781 Z M 153.523438 253.546875 " fill-opacity="1" fill-rule="nonzero"/></g><g clip-path="url(#28db225957)"><path fill="#63cbf7" d="M 253.976562 77.070312 C 241.304688 66.191406 226.035156 58.507812 209.820312 54.851562 L 210.171875 53.296875 C 226.640625 57.015625 242.148438 64.816406 255.019531 75.863281 Z M 253.976562 77.070312 " fill-opacity="1" fill-rule="nonzero"/></g><path fill="#1c61ad" d="M 238.335938 156.417969 C 235.578125 158.800781 226.683594 166.34375 214.660156 175.226562 C 204.265625 182.914062 191.527344 191.597656 178.414062 198.789062 C 168.785156 204.074219 158.953125 208.558594 149.691406 211.257812 C 143.160156 213.160156 137.726562 214.203125 133.226562 214.59375 C 131.089844 214.777344 129.164062 214.816406 127.4375 214.730469 C 111.90625 213.980469 111.933594 203.347656 115.292969 199.433594 C 115.304688 199.414062 115.316406 199.398438 115.332031 199.382812 C 115.496094 199.640625 116.660156 201.382812 116.796875 201.597656 C 117.582031 202.867188 119.835938 204.285156 123.980469 204.96875 C 131.3125 206.171875 144.558594 205.0625 166.09375 196.710938 C 168.75 195.679688 171.339844 194.636719 173.855469 193.589844 C 189.804688 186.941406 202.898438 180.023438 213.070312 173.9375 C 227.207031 165.484375 235.691406 158.648438 238.335938 156.417969 Z M 238.335938 156.417969 " fill-opacity="1" fill-rule="nonzero"/><path fill="#1c61ad" d="M 166.339844 214.203125 C 144.753906 224.433594 137.46875 223.386719 135.019531 221.285156 C 134.621094 220.945312 133.046875 219.460938 132.941406 219.636719 C 130.425781 224.078125 133.203125 235.394531 158.703125 225.90625 C 186.660156 215.503906 221.753906 175.394531 221.753906 175.394531 C 221.753906 175.394531 200.175781 198.167969 166.339844 214.203125 Z M 166.339844 214.203125 " fill-opacity="1" fill-rule="nonzero"/></svg>